<?xml version="1.0" standalone="no"?>
<!DOCTYPE svg PUBLIC "-//W3C//DTD SVG 1.1//EN" "http://www.w3.org/Graphics/SVG/1.1/DTD/svg11.dtd" >
<svg xmlns="http://www.w3.org/2000/svg">
<defs>
  <font id="eea-outline" horiz-adv-x="1000">
    <font-face font-family="eea-outline"
      units-per-em="1000" ascent="1000"
      descent="0" />
    <missing-glyph horiz-adv-x="0" />
    <glyph glyph-name="academic-cap"
      unicode="&#xEA01;"
      horiz-adv-x="1000" d="M177.5 577.2083333333334A2518.2499999999995 2518.2499999999995 0 0 1 157.0416666666667 312.75A2025.8333333333333 2025.8333333333333 0 0 0 500 129A2025.8333333333333 2025.8333333333333 0 0 0 842.9999999999999 312.75A2519.166666666666 2519.166666666666 0 0 1 822.5416666666666 577.2083333333335M177.4583333333334 577.2083333333335A2109.8333333333335 2109.8333333333335 0 0 1 66.7083333333333 611.0833333333335A2496.083333333333 2496.083333333333 0 0 0 500 854.4583333333334A2495.958333333333 2495.958333333333 0 0 0 933.2916666666666 611.125C895.9583333333333 600.7916666666667 858.9999999999999 589.4583333333334 822.5416666666666 577.2083333333334M177.4583333333334 577.2083333333334A2113.208333333333 2113.208333333333 0 0 0 500 437.9583333333334A2112.583333333333 2112.583333333333 0 0 0 822.5 577.2083333333334M281.25 375A31.25 31.25 0 1 1 281.25 437.5A31.25 31.25 0 0 1 281.25 375zM281.25 375V528.125A2307.416666666666 2307.416666666666 0 0 0 500 648.2083333333334M208.0416666666667 166.9583333333333A249.2083333333333 249.2083333333333 0 0 1 281.25 343.75V406.25" />
    <glyph glyph-name="adjustments-horizontal"
      unicode="&#xEA02;"
      horiz-adv-x="1000" d="M437.5 750H843.75M437.5 750A62.5 62.5 0 1 0 312.5 750M437.5 750A62.5 62.5 0 1 1 312.5 750M156.25 750H312.5M437.5 250H843.75M437.5 250A62.5 62.5 0 0 0 312.5 250M437.5 250A62.5 62.5 0 0 1 312.5 250M156.25 250H312.5M687.5 500H843.75M687.5 500A62.5 62.5 0 0 0 562.5 500M687.5 500A62.5 62.5 0 0 1 562.5 500M156.25 500H562.5" />
    <glyph glyph-name="adjustments-vertical"
      unicode="&#xEA03;"
      horiz-adv-x="1000" d="M250 437.5V843.75M250 437.5A62.5 62.5 0 0 0 250 312.5M250 437.5A62.5 62.5 0 0 1 250 312.5M250 156.25V312.5M750 437.5V843.75M750 437.5A62.5 62.5 0 0 0 750 312.5M750 437.5A62.5 62.5 0 0 1 750 312.5M750 156.25V312.5M500 687.5V843.75M500 687.5A62.5 62.5 0 0 0 500 562.5M500 687.5A62.5 62.5 0 0 1 500 562.5M500 156.25V562.5" />
    <glyph glyph-name="archive-box-arrow-down"
      unicode="&#xEA04;"
      horiz-adv-x="1000" d="M843.75 687.5L817.7083333333333 244.5000000000001A93.75 93.75 0 0 0 724.0833333333333 156.2500000000002H275.9166666666667A93.75 93.75 0 0 0 182.2916666666667 244.5000000000001L156.25 687.5M500 562.5V281.25M500 281.25L375 406.25M500 281.25L625 406.25M140.625 687.5H859.375C885.2499999999999 687.5 906.25 708.5 906.25 734.375V796.875C906.25 822.75 885.2499999999999 843.75 859.375 843.75H140.625C114.75 843.75 93.75 822.75 93.75 796.875V734.375C93.75 708.5 114.75 687.5 140.625 687.5z" />
    <glyph glyph-name="archive-box-x-mark"
      unicode="&#xEA05;"
      horiz-adv-x="1000" d="M843.75 687.5L817.7083333333333 244.5000000000001A93.75 93.75 0 0 0 724.0833333333333 156.2500000000002H275.9166666666667A93.75 93.75 0 0 0 182.2916666666667 244.5000000000001L156.25 687.5M406.25 515.625L500 421.875M500 421.875L593.75 328.125M500 421.875L593.75 515.625M500 421.875L406.25 328.125M140.625 687.5H859.375C885.2499999999999 687.5 906.25 708.5 906.25 734.375V796.875C906.25 822.75 885.2499999999999 843.75 859.375 843.75H140.625C114.75 843.75 93.75 822.75 93.75 796.875V734.375C93.75 708.5 114.75 687.5 140.625 687.5z" />
    <glyph glyph-name="archive-box"
      unicode="&#xEA06;"
      horiz-adv-x="1000" d="M843.75 687.5L817.7083333333333 244.5000000000001A93.75 93.75 0 0 0 724.0833333333333 156.2500000000002H275.9166666666667A93.75 93.75 0 0 0 182.2916666666667 244.5000000000001L156.25 687.5M416.6666666666667 531.25H583.3333333333333M140.625 687.5H859.375C885.2499999999999 687.5 906.25 708.5 906.25 734.375V796.875C906.25 822.75 885.2499999999999 843.75 859.375 843.75H140.625C114.75 843.75 93.75 822.75 93.75 796.875V734.375C93.75 708.5 114.75 687.5 140.625 687.5z" />
    <glyph glyph-name="arrow-down-circle"
      unicode="&#xEA07;"
      horiz-adv-x="1000" d="M375 468.75L500 343.75M500 343.75L625 468.75M500 343.75V656.25M875 500A375 375 0 1 0 125 500A375 375 0 0 0 875 500z" />
    <glyph glyph-name="arrow-down-left"
      unicode="&#xEA08;"
      horiz-adv-x="1000" d="M812.5 812.5L187.5 187.5M187.5 187.5H656.25M187.5 187.5V656.25" />
    <glyph glyph-name="arrow-down-on-square-stack"
      unicode="&#xEA09;"
      horiz-adv-x="1000" d="M312.5 687.5H281.25A93.75 93.75 0 0 1 187.5 593.75V281.25A93.75 93.75 0 0 1 281.25 187.5H593.75A93.75 93.75 0 0 1 687.5 281.25V593.75A93.75 93.75 0 0 1 593.75 687.5H562.5M312.5 531.25L437.5 406.25M437.5 406.25L562.5 531.25M437.5 406.25V937.5M687.5 562.5H718.75A93.75 93.75 0 0 0 812.5 468.75V156.25A93.75 93.75 0 0 0 718.75 62.5H406.25A93.75 93.75 0 0 0 312.5 156.25V187.5" />
    <glyph glyph-name="arrow-down-on-square"
      unicode="&#xEA0A;"
      horiz-adv-x="1000" d="M375 656.25H312.5A93.75 93.75 0 0 1 218.75 562.5V187.5A93.75 93.75 0 0 1 312.5 93.75H687.5A93.75 93.75 0 0 1 781.25 187.5V562.5A93.75 93.75 0 0 1 687.5 656.25H625M375 500L500 375M500 375L625 500M500 375V906.25" />
    <glyph glyph-name="arrow-down-right"
      unicode="&#xEA0B;"
      horiz-adv-x="1000" d="M187.5 812.5L812.5 187.5M812.5 187.5V656.25M812.5 187.5H343.75" />
    <glyph glyph-name="arrow-down-tray"
      unicode="&#xEA0C;"
      horiz-adv-x="1000" d="M125 312.5V218.75A93.75 93.75 0 0 1 218.75 125H781.25A93.75 93.75 0 0 1 875 218.75V312.5M687.5 500L500 312.5M500 312.5L312.5 500M500 312.5V875" />
    <glyph glyph-name="arrow-down"
      unicode="&#xEA0D;"
      horiz-adv-x="1000" d="M812.5 437.5L500 125M500 125L187.5 437.5M500 125V875" />
    <glyph glyph-name="arrow-left-circle"
      unicode="&#xEA0E;"
      horiz-adv-x="1000" d="M468.75 625L343.75 500M343.75 500L468.75 375M343.75 500H656.25M875 500A375 375 0 1 0 125 500A375 375 0 0 0 875 500z" />
    <glyph glyph-name="arrow-left-on-rectangle"
      unicode="&#xEA0F;"
      horiz-adv-x="1000" d="M656.25 625V781.25A93.75 93.75 0 0 1 562.5 875H312.5A93.75 93.75 0 0 1 218.75 781.25V218.75A93.75 93.75 0 0 1 312.5 125H562.5A93.75 93.75 0 0 1 656.25 218.75V375M500 625L375 500M375 500L500 375M375 500H906.25" />
    <glyph glyph-name="arrow-left"
      unicode="&#xEA10;"
      horiz-adv-x="1000" d="M437.5 187.5L125 500M125 500L437.5 812.5M125 500H875" />
    <glyph glyph-name="arrow-long-down"
      unicode="&#xEA11;"
      horiz-adv-x="1000" d="M656.25 281.25L500 125M500 125L343.75 281.25M500 125V875" />
    <glyph glyph-name="arrow-long-left"
      unicode="&#xEA12;"
      horiz-adv-x="1000" d="M281.25 343.75L125 500M125 500L281.25 656.25M125 500H875" />
    <glyph glyph-name="arrow-long-right"
      unicode="&#xEA13;"
      horiz-adv-x="1000" d="M718.75 656.25L875 500M875 500L718.75 343.75M875 500H125" />
    <glyph glyph-name="arrow-long-up"
      unicode="&#xEA14;"
      horiz-adv-x="1000" d="M343.75 718.75L500 875M500 875L656.25 718.75M500 875V125" />
    <glyph glyph-name="arrow-path-rounded-square"
      unicode="&#xEA15;"
      horiz-adv-x="1000" d="M812.5 500C812.5 551.3333333333333 810.5833333333333 602.2083333333333 806.7499999999999 652.5833333333333A166.9166666666667 166.9166666666667 0 0 1 652.5833333333333 806.75A2028.2499999999995 2028.2499999999995 0 0 1 347.4166666666667 806.75A166.9166666666667 166.9166666666667 0 0 1 193.25 652.5833333333333C192.5416666666666 643.4166666666666 191.9166666666666 634.2083333333333 191.3333333333333 625M812.5 500L937.5 625M812.5 500L687.5 625M187.5 500C187.5 448.6666666666668 189.4166666666667 397.7916666666668 193.25 347.4166666666668A166.9166666666667 166.9166666666667 0 0 1 347.4166666666667 193.2500000000001A2027.3333333333333 2027.3333333333333 0 0 1 652.5833333333334 193.2500000000001A166.9166666666667 166.9166666666667 0 0 1 806.75 347.4166666666668C807.4583333333334 356.5833333333335 808.0833333333334 365.7916666666668 808.6666666666666 375.0000000000001M187.5 500L312.5 375M187.5 500L62.5 375" />
    <glyph glyph-name="arrow-path"
      unicode="&#xEA16;"
      horiz-adv-x="1000" d="M667.625 610.5H875.625V610.5416666666666M124.375 181.5000000000001V389.5000000000001M124.375 389.5000000000001H332.375M124.3333333333333 389.5000000000001L256.875 256.8750000000001A343.75 343.75 0 0 1 832 411.0416666666668M167.9583333333333 588.9583333333334A343.75 343.75 0 0 0 743.0833333333333 743.125L875.625 610.5416666666667M875.625 818.5V610.5833333333334" />
    <glyph glyph-name="arrow-right-circle"
      unicode="&#xEA17;"
      horiz-adv-x="1000" d="M531.25 375L656.25 500M656.25 500L531.25 625M656.25 500H343.75M875 500A375 375 0 1 0 125 500A375 375 0 0 0 875 500z" />
    <glyph glyph-name="arrow-right-on-rectangle"
      unicode="&#xEA18;"
      horiz-adv-x="1000" d="M656.25 625V781.25A93.75 93.75 0 0 1 562.5 875H312.5A93.75 93.75 0 0 1 218.75 781.25V218.75A93.75 93.75 0 0 1 312.5 125H562.5A93.75 93.75 0 0 1 656.25 218.75V375M781.25 375L906.25 500M906.25 500L781.25 625M906.25 500H375" />
    <glyph glyph-name="arrow-right"
      unicode="&#xEA19;"
      horiz-adv-x="1000" d="M562.5 812.5L875 500M875 500L562.5 187.5M875 500H125" />
    <glyph glyph-name="arrow-small-down-1"
      unicode="&#xEA1A;"
      horiz-adv-x="1000" d="M500 843.75A31.25 31.25 0 0 0 531.25 812.5V262.9166666666669L759.1666666666666 490.8333333333334A31.25 31.25 0 1 0 803.3333333333331 446.6666666666668L522.0833333333333 165.4166666666666A31.25 31.25 0 0 0 477.9166666666665 165.4166666666666L196.6666666666666 446.6666666666667A31.25 31.25 0 1 0 240.8333333333333 490.8333333333333L468.7499999999998 262.9166666666667V812.5A31.25 31.25 0 0 0 499.9999999999998 843.75z" />
    <glyph glyph-name="arrow-small-down"
      unicode="&#xEA1B;"
      horiz-adv-x="1000" d="M500 812.5V187.5M500 187.5L781.25 468.75M500 187.5L218.75 468.75" />
    <glyph glyph-name="arrow-small-left-1"
      unicode="&#xEA1C;"
      horiz-adv-x="1000" d="M843.75 500A31.25 31.25 0 0 0 812.5 468.75H262.9166666666667L490.8333333333333 240.8333333333334A31.25 31.25 0 1 0 446.6666666666666 196.6666666666669L165.4166666666666 477.9166666666667A31.25 31.25 0 0 0 165.4166666666666 522.0833333333335L446.6666666666666 803.3333333333335A31.25 31.25 0 1 0 490.8333333333333 759.1666666666667L262.9166666666667 531.2500000000002H812.5A31.25 31.25 0 0 0 843.75 500.0000000000002z" />
    <glyph glyph-name="arrow-small-left"
      unicode="&#xEA1D;"
      horiz-adv-x="1000" d="M812.5 500H187.5M187.5 500L468.75 218.75M187.5 500L468.75 781.25" />
    <glyph glyph-name="arrow-small-right-1"
      unicode="&#xEA1E;"
      horiz-adv-x="1000" d="M156.25 500A31.25 31.25 0 0 0 187.5 531.25H737.0833333333331L509.1666666666666 759.1666666666666A31.25 31.25 0 0 0 553.3333333333333 803.3333333333333L834.5833333333334 522.0833333333333A31.25 31.25 0 0 0 834.5833333333334 477.9166666666666L553.3333333333334 196.6666666666666A31.25 31.25 0 1 0 509.1666666666667 240.8333333333333L737.0833333333334 468.7499999999999H187.5A31.25 31.25 0 0 0 156.25 499.9999999999999z" />
    <glyph glyph-name="arrow-small-right"
      unicode="&#xEA1F;"
      horiz-adv-x="1000" d="M187.5 500H812.5M812.5 500L531.25 781.25M812.5 500L531.25 218.75" />
    <glyph glyph-name="arrow-small-up-1"
      unicode="&#xEA20;"
      horiz-adv-x="1000" d="M500 156.25A31.25 31.25 0 0 0 468.75 187.5V737.0833333333334L240.8333333333334 509.1666666666667A31.25 31.25 0 0 0 196.6666666666667 553.3333333333335L477.9166666666667 834.5833333333334A31.25 31.25 0 0 0 522.0833333333334 834.5833333333334L803.3333333333334 553.3333333333335A31.25 31.25 0 1 0 759.1666666666667 509.1666666666667L531.2500000000001 737.0833333333334V187.5A31.25 31.25 0 0 0 500.0000000000001 156.25z" />
    <glyph glyph-name="arrow-small-up"
      unicode="&#xEA21;"
      horiz-adv-x="1000" d="M500 187.5V812.5M500 812.5L218.75 531.25M500 812.5L781.25 531.25" />
    <glyph glyph-name="arrow-top-right-on-square"
      unicode="&#xEA22;"
      horiz-adv-x="1000" d="M562.5 750H218.75A93.75 93.75 0 0 1 125 656.25V218.75A93.75 93.75 0 0 1 218.75 125H656.25A93.75 93.75 0 0 1 750 218.75V562.5M312.5 312.5L875 875M875 875H656.25M875 875V656.25" />
    <glyph glyph-name="arrow-trending-down"
      unicode="&#xEA23;"
      horiz-adv-x="1000" d="M93.75 750L375 468.75L553.5833333333333 647.3333333333333A497.8333333333333 497.8333333333333 0 0 0 732.9999999999999 379.4166666666668L765.3333333333333 258.6666666666667M765.3333333333333 258.6666666666667L897.9166666666665 488.2916666666666M765.3333333333333 258.7083333333333L535.7083333333333 391.2499999999999" />
    <glyph glyph-name="arrow-trending-up"
      unicode="&#xEA24;"
      horiz-adv-x="1000" d="M93.75 250L375 531.25L554.4166666666666 351.8333333333334A497.9166666666666 497.9166666666666 0 0 0 796.6666666666666 581.75L910.8333333333331 632.5833333333334M910.8333333333331 632.5833333333334L663.3333333333333 727.625M910.8333333333331 632.6250000000001L815.8333333333333 385.0833333333334" />
    <glyph glyph-name="arrow-up-circle"
      unicode="&#xEA25;"
      horiz-adv-x="1000" d="M625 531.25L500 656.25M500 656.25L375 531.25M500 656.25V343.75M875 500A375 375 0 1 0 125 500A375 375 0 0 0 875 500z" />
    <glyph glyph-name="arrow-up-left"
      unicode="&#xEA26;"
      horiz-adv-x="1000" d="M812.5 187.5L187.5 812.5M187.5 812.5V343.75M187.5 812.5H656.25" />
    <glyph glyph-name="arrow-up-on-square-stack"
      unicode="&#xEA27;"
      horiz-adv-x="1000" d="M312.5 687.5H281.25A93.75 93.75 0 0 1 187.5 593.75V281.25A93.75 93.75 0 0 1 281.25 187.5H593.75A93.75 93.75 0 0 1 687.5 281.25V593.75A93.75 93.75 0 0 1 593.75 687.5H562.5M562.5 812.5L437.5 937.5M437.5 937.5L312.5 812.5M437.5 937.5V468.75M687.5 562.5H718.75A93.75 93.75 0 0 0 812.5 468.75V156.25A93.75 93.75 0 0 0 718.75 62.5H406.25A93.75 93.75 0 0 0 312.5 156.25V187.5" />
    <glyph glyph-name="arrow-up-on-square"
      unicode="&#xEA28;"
      horiz-adv-x="1000" d="M375 656.25H312.5A93.75 93.75 0 0 1 218.75 562.5V187.5A93.75 93.75 0 0 1 312.5 93.75H687.5A93.75 93.75 0 0 1 781.25 187.5V562.5A93.75 93.75 0 0 1 687.5 656.25H625M625 781.25L500 906.25M500 906.25L375 781.25M500 906.25V375" />
    <glyph glyph-name="arrow-up-right"
      unicode="&#xEA29;"
      horiz-adv-x="1000" d="M187.5 187.5L812.5 812.5M812.5 812.5H343.75M812.5 812.5V343.75" />
    <glyph glyph-name="arrow-up-tray"
      unicode="&#xEA2A;"
      horiz-adv-x="1000" d="M125 312.5V218.75A93.75 93.75 0 0 1 218.75 125H781.25A93.75 93.75 0 0 1 875 218.75V312.5M312.5 687.5L500 875M500 875L687.5 687.5M500 875V312.5" />
    <glyph glyph-name="arrow-up"
      unicode="&#xEA2B;"
      horiz-adv-x="1000" d="M187.5 562.5L500 875M500 875L812.5 562.5M500 875V125" />
    <glyph glyph-name="arrow-uturn-down"
      unicode="&#xEA2C;"
      horiz-adv-x="1000" d="M625 375L375 125M375 125L125 375M375 125V625A250 250 0 0 0 875 625V500" />
    <glyph glyph-name="arrow-uturn-left"
      unicode="&#xEA2D;"
      horiz-adv-x="1000" d="M375 375L125 625M125 625L375 875M125 625H625A250 250 0 0 0 625 125H500" />
    <glyph glyph-name="arrow-uturn-right"
      unicode="&#xEA2E;"
      horiz-adv-x="1000" d="M625 375L875 625M875 625L625 875M875 625H375A250 250 0 0 1 375 125H500" />
    <glyph glyph-name="arrow-uturn-up"
      unicode="&#xEA2F;"
      horiz-adv-x="1000" d="M375 625L625 875M625 875L875 625M625 875V375A250 250 0 0 0 125 375V500" />
    <glyph glyph-name="arrows-pointing-in"
      unicode="&#xEA30;"
      horiz-adv-x="1000" d="M375 625V812.5M375 625H187.5M375 625L156.25 843.75M375 375V187.5M375 375H187.5M375 375L156.25 156.25M625 625H812.5M625 625V812.5M625 625L843.75 843.75M625 375H812.5M625 375V187.5M625 375L843.75 156.25" />
    <glyph glyph-name="arrows-pointing-out"
      unicode="&#xEA31;"
      horiz-adv-x="1000" d="M156.25 843.75V656.25M156.25 843.75H343.75M156.25 843.75L375 625M156.25 156.25V343.75M156.25 156.25H343.75M156.25 156.25L375 375M843.75 843.75H656.25M843.75 843.75V656.25M843.75 843.75L625 625M843.75 156.25H656.25M843.75 156.25V343.75M843.75 156.25L625 375" />
    <glyph glyph-name="arrows-right-left"
      unicode="&#xEA32;"
      horiz-adv-x="1000" d="M312.5 125L125 312.5M125 312.5L312.5 500M125 312.5H687.5M687.5 875L875 687.5M875 687.5L687.5 500M875 687.5H312.5" />
    <glyph glyph-name="arrows-up-down"
      unicode="&#xEA33;"
      horiz-adv-x="1000" d="M125 687.5L312.5 875M312.5 875L500 687.5M312.5 875V312.5M875 312.5L687.5 125M687.5 125L500 312.5M687.5 125V687.5" />
    <glyph glyph-name="at-symbol"
      unicode="&#xEA34;"
      horiz-adv-x="1000" d="M687.5 500A187.5 187.5 0 1 0 312.5 500A187.5 187.5 0 0 0 687.5 500zM687.5 500C687.5 430.9583333333334 729.4583333333334 375 781.25 375S875 430.9583333333334 875 500A375 375 0 1 1 765.1666666666666 234.8333333333334M687.5 500V656.25" />
    <glyph glyph-name="backspace"
      unicode="&#xEA35;"
      horiz-adv-x="1000" d="M500 593.75L593.75 500M593.75 500L687.5 406.25M593.75 500L687.5 593.75M593.75 500L500 406.25M392.5 201.25L126.9166666666667 466.875A46.875 46.875 0 0 0 126.9166666666667 533.125L392.5 798.75C401.25 807.5416666666667 413.2083333333333 812.5 425.625 812.5H812.5A93.75 93.75 0 0 0 906.25 718.75V281.25A93.75 93.75 0 0 0 812.5 187.5H425.6666666666667C413.25 187.5 401.2916666666667 192.4583333333334 392.5416666666667 201.25z" />
    <glyph glyph-name="backward"
      unicode="&#xEA36;"
      horiz-adv-x="1000" d="M875 299.5416666666668C875 263.5416666666667 836.125 240.9583333333335 804.875 258.8333333333334L508.7083333333333 428.0416666666668A46.875 46.875 0 0 0 508.7083333333333 509.4583333333334L804.875 678.6666666666667A46.875 46.875 0 0 0 875 637.9583333333334V299.5416666666668zM468.75 299.5416666666668C468.75 263.5416666666667 429.875 240.9583333333335 398.625 258.8333333333334L102.4583333333333 428.0416666666668A46.875 46.875 0 0 0 102.4583333333333 509.4583333333334L398.625 678.6666666666667A46.875 46.875 0 0 0 468.75 637.9583333333334V299.5416666666668z" />
    <glyph glyph-name="banknotes"
      unicode="&#xEA37;"
      horiz-adv-x="1000" d="M93.75 218.75A2502.9166666666665 2502.9166666666665 0 0 0 751.9583333333334 131.2083333333334C782.25 122.9583333333334 812.5 145.4583333333334 812.5 176.8750000000001V218.75M156.25 812.5V781.25A31.25 31.25 0 0 0 125 750H93.75M93.75 750V765.625C93.75 791.5 114.75 812.5 140.625 812.5H843.75M93.75 750V375M843.75 812.5V781.25C843.75 764 857.7499999999999 750 875 750H906.25M843.75 812.5H859.375C885.2499999999999 812.5 906.25 791.5 906.25 765.625V359.375C906.25 333.5 885.2499999999999 312.5 859.375 312.5H843.75M906.25 375H875A31.25 31.25 0 0 1 843.75 343.75V312.5M843.75 312.5H156.25M156.25 312.5H140.625A46.875 46.875 0 0 0 93.75 359.375V375M156.25 312.5V343.75A31.25 31.25 0 0 1 125 375H93.75M625 562.5A125 125 0 1 0 375 562.5A125 125 0 0 0 625 562.5zM750 562.5H750.3333333333333V562.1666666666667H750V562.5zM250 562.5H250.3333333333333V562.1666666666667H250V562.5z" />
    <glyph glyph-name="bars-2"
      unicode="&#xEA38;"
      horiz-adv-x="1000" d="M156.25 625H843.75M156.25 343.75H843.75" />
    <glyph glyph-name="bars-3-bottom-left"
      unicode="&#xEA39;"
      horiz-adv-x="1000" d="M156.25 718.75H843.75M156.25 500H843.75M156.25 281.25H500" />
    <glyph glyph-name="bars-3-bottom-right"
      unicode="&#xEA3A;"
      horiz-adv-x="1000" d="M156.25 718.75H843.75M156.25 500H843.75M500 281.25H843.75" />
    <glyph glyph-name="bars-3-center-left"
      unicode="&#xEA3B;"
      horiz-adv-x="1000" d="M156.25 718.75H843.75M156.25 500H500M156.25 281.25H843.75" />
    <glyph glyph-name="bars-3"
      unicode="&#xEA3C;"
      horiz-adv-x="1000" d="M156.25 718.75H843.75M156.25 500H843.75M156.25 281.25H843.75" />
    <glyph glyph-name="bars-4"
      unicode="&#xEA3D;"
      horiz-adv-x="1000" d="M156.25 781.25H843.75M156.25 593.75H843.75M156.25 406.25H843.75M156.25 218.75H843.75" />
    <glyph glyph-name="bars-arrow-down"
      unicode="&#xEA3E;"
      horiz-adv-x="1000" d="M125 812.5H718.75M125 625H531.25M125 437.5H531.25M718.75 625V125M718.75 125L562.5 281.25M718.75 125L875 281.25" />
    <glyph glyph-name="bars-arrow-up"
      unicode="&#xEA3F;"
      horiz-adv-x="1000" d="M125 812.5H718.75M125 625H531.25M125 437.5H343.75M562.5 468.75L718.75 625M718.75 625L875 468.75M718.75 625V125" />
    <glyph glyph-name="battery-0"
      unicode="&#xEA40;"
      horiz-adv-x="1000" d="M875 562.5H890.625C916.4999999999998 562.5 937.5 541.5 937.5 515.625V421.875C937.5 396 916.4999999999998 375 890.625 375H875M156.25 250H781.25A93.75 93.75 0 0 1 875 343.75V593.75A93.75 93.75 0 0 1 781.25 687.5H156.25A93.75 93.75 0 0 1 62.5 593.75V343.75A93.75 93.75 0 0 1 156.25 250z" />
    <glyph glyph-name="battery-100"
      unicode="&#xEA41;"
      horiz-adv-x="1000" d="M875 562.5H890.625C916.4999999999998 562.5 937.5 541.5 937.5 515.625V421.875C937.5 396 916.4999999999998 375 890.625 375H875M187.5 562.5H750V375H187.5V562.5zM156.25 250H781.25A93.75 93.75 0 0 1 875 343.75V593.75A93.75 93.75 0 0 1 781.25 687.5H156.25A93.75 93.75 0 0 1 62.5 593.75V343.75A93.75 93.75 0 0 1 156.25 250z" />
    <glyph glyph-name="battery-50"
      unicode="&#xEA42;"
      horiz-adv-x="1000" d="M875 562.5H890.625C916.4999999999998 562.5 937.5 541.5 937.5 515.625V421.875C937.5 396 916.4999999999998 375 890.625 375H875M187.5 562.5H468.75V375H187.5V562.5zM156.25 250H781.25A93.75 93.75 0 0 1 875 343.75V593.75A93.75 93.75 0 0 1 781.25 687.5H156.25A93.75 93.75 0 0 1 62.5 593.75V343.75A93.75 93.75 0 0 1 156.25 250z" />
    <glyph glyph-name="beaker"
      unicode="&#xEA43;"
      horiz-adv-x="1000" d="M406.25 870.6666666666666V632.5833333333333A93.75 93.75 0 0 0 378.7916666666667 566.2916666666667L208.3333333333333 395.8333333333334M406.25 870.6666666666666C395.7916666666667 869.7083333333334 385.375 868.5833333333334 375 867.25M406.25 870.6666666666666A1012.5416666666666 1012.5416666666666 0 0 0 593.75 870.6666666666666M593.75 870.6666666666666V632.5833333333333C593.75 607.7083333333333 603.625 583.8333333333333 621.2083333333334 566.2916666666667L825 362.5M593.75 870.6666666666666C604.2083333333333 869.7083333333334 614.6249999999999 868.5833333333334 625 867.25M825 362.5L759.5833333333333 346.125A377.7083333333333 377.7083333333333 0 0 0 500 375A377.7083333333333 377.7083333333333 0 0 1 240.4166666666667 403.875L208.3333333333333 395.8333333333334M825 362.5L883.4166666666667 304.0833333333333C934.75 252.75 910.5 165.8333333333333 838.9583333333334 153.625A2012.8749999999995 2012.8749999999995 0 0 0 500 125C384.4583333333333 125 271.2083333333333 134.7916666666668 161.0416666666667 153.6250000000001C89.4583333333333 165.8333333333334 65.2083333333333 252.7500000000001 116.5833333333333 304.0416666666668L208.3333333333333 395.8333333333334" />
    <glyph glyph-name="bell-alert"
      unicode="&#xEA44;"
      horiz-adv-x="1000" d="M619.0416666666666 288.25A993.6666666666666 993.6666666666666 0 0 1 846.2916666666666 342.8333333333334A373.625 373.625 0 0 0 750 593.75V625A250 250 0 0 1 250 625V593.75A373.625 373.625 0 0 0 153.6666666666667 342.8333333333334C225.875 316.1666666666668 302 297.6250000000001 380.9583333333333 288.25M619.0416666666666 288.25A1010.6249999999998 1010.6249999999998 0 0 0 380.9583333333333 288.25M619.0416666666666 288.25A125 125 0 1 0 380.9583333333333 288.25M130.1666666666667 687.5A373.7083333333333 373.7083333333333 0 0 0 220.5 875M779.4999999999999 875A373.7083333333333 373.7083333333333 0 0 0 869.8333333333331 687.5" />
    <glyph glyph-name="bell-slash"
      unicode="&#xEA45;"
      horiz-adv-x="1000" d="M380.9583333333333 288.25A1010.3333333333331 1010.3333333333331 0 0 1 541.125 282.0833333333334M380.9583333333333 288.25A994 994 0 0 0 153.6666666666667 342.8333333333334A373.5 373.5 0 0 1 249.5 573.75M380.9583333333333 288.25A125 125 0 0 1 617.0833333333334 206.1666666666668M698.9583333333334 301.0416666666668L875 125M698.9583333333333 301.0416666666668A992.0833333333331 992.0833333333331 0 0 1 846.2916666666666 342.8333333333335A373.625 373.625 0 0 0 750 593.75V625A250 250 0 0 1 272.0833333333333 727.9166666666667M698.9583333333333 301.0416666666668L272.0833333333333 727.9166666666667M125 875L272.0833333333333 727.9166666666667" />
    <glyph glyph-name="bell-snooze"
      unicode="&#xEA46;"
      horiz-adv-x="1000" d="M619.0416666666666 288.25A993.6666666666666 993.6666666666666 0 0 1 846.2916666666666 342.8333333333334A373.625 373.625 0 0 0 750 593.75V625A250 250 0 0 1 250 625V593.75A373.625 373.625 0 0 0 153.6666666666667 342.8333333333334C225.875 316.1666666666668 302 297.6250000000001 380.9583333333333 288.25M619.0416666666666 288.25A1010.6249999999998 1010.6249999999998 0 0 0 380.9583333333333 288.25M619.0416666666666 288.25A125 125 0 1 0 380.9583333333333 288.25M437.5 656.25H562.5L437.5 468.75H562.5" />
    <glyph glyph-name="bell"
      unicode="&#xEA47;"
      horiz-adv-x="1000" d="M619.0416666666666 288.25A993.6666666666666 993.6666666666666 0 0 1 846.2916666666666 342.8333333333334A373.625 373.625 0 0 0 750 593.75V625A250 250 0 0 1 250 625V593.75A373.625 373.625 0 0 0 153.6666666666667 342.8333333333334C225.875 316.1666666666668 302 297.6250000000001 380.9583333333333 288.25M619.0416666666666 288.25A1010.6249999999998 1010.6249999999998 0 0 0 380.9583333333333 288.25M619.0416666666666 288.25A125 125 0 1 0 380.9583333333333 288.25" />
    <glyph glyph-name="bolt-slash"
      unicode="&#xEA48;"
      horiz-adv-x="1000" d="M475.5 347.7083333333334L406.25 93.75L562.2916666666666 260.9166666666668M385.7083333333333 437.5H156.25L267.0416666666667 556.2083333333334M352.375 647.625L593.75 906.25L500 562.5H843.75L647.6249999999999 352.3750000000001M352.375 647.625L125 875M352.375 647.625L647.625 352.375M647.625 352.375L875 125" />
    <glyph glyph-name="bolt"
      unicode="&#xEA49;"
      horiz-adv-x="1000" d="M156.25 437.5L593.75 906.25L500 562.5H843.75L406.25 93.75L500 437.5H156.25z" />
    <glyph glyph-name="book-open"
      unicode="&#xEA4A;"
      horiz-adv-x="1000" d="M500 748.25A373.625 373.625 0 0 1 250 843.75C206.1666666666667 843.75 164.0833333333334 836.25 125 822.4166666666666V228.6666666666668A374.4583333333333 374.4583333333333 0 0 0 250 250C346.0416666666667 250 433.6666666666667 213.875 500 154.5M500 748.25A373.5833333333333 373.5833333333333 0 0 0 750 843.75C793.8333333333333 843.75 835.9166666666666 836.2499999999999 875 822.4166666666665V228.6666666666668A374.4583333333333 374.4583333333333 0 0 1 750 250A373.625 373.625 0 0 1 500 154.5M500 748.25V154.5" />
    <glyph glyph-name="bookmark-slash"
      unicode="&#xEA4B;"
      horiz-adv-x="1000" d="M125 875L194.3333333333333 805.6666666666667M875 125L812.5 187.5M583.9583333333334 239.2500000000001L500 281.25L187.5 125V635.75M194.3333333333333 805.6666666666666A89.5833333333333 89.5833333333333 0 0 0 266.9583333333333 861.5833333333333A2021.1249999999995 2021.1249999999995 0 0 0 733.0416666666666 861.5833333333333C778.875 856.25 812.5 816.7083333333333 812.5 770.5416666666666V187.5M194.3333333333333 805.6666666666667L812.5 187.5" />
    <glyph glyph-name="bookmark-square"
      unicode="&#xEA4C;"
      horiz-adv-x="1000" d="M687.5 843.75V312.5L500 406.25L312.5 312.5V843.75M687.5 843.75H750A93.75 93.75 0 0 0 843.75 750V250A93.75 93.75 0 0 0 750 156.25H250A93.75 93.75 0 0 0 156.25 250V750A93.75 93.75 0 0 0 250 843.75H312.5M687.5 843.75H312.5" />
    <glyph glyph-name="bookmark"
      unicode="&#xEA4D;"
      horiz-adv-x="1000" d="M733.0416666666666 861.5833333333334C778.875 856.25 812.5 816.7083333333334 812.5 770.5416666666667V125L500 281.25L187.5 125V770.5416666666667C187.5 816.7083333333334 221.0833333333333 856.25 266.9583333333333 861.5833333333334A2021.1249999999995 2021.1249999999995 0 0 0 733.0416666666666 861.5833333333334z" />
    <glyph glyph-name="briefcase"
      unicode="&#xEA4E;"
      horiz-adv-x="1000" d="M843.75 410.4166666666667V233.3333333333335C843.75 187.75 810.9583333333334 148.5 765.75 142.5000000000001C678.7916666666666 130.9583333333334 590.0833333333333 125 500 125S321.2083333333333 130.9583333333334 234.25 142.5000000000001C189.0416666666667 148.5 156.25 187.75 156.25 233.3333333333335V410.4166666666668M843.75 410.4166666666668A90.8333333333333 90.8333333333333 0 0 1 875 479.6250000000001V637.25C875 682.2916666666667 842.9999999999999 721.2083333333334 798.4583333333333 727.875A2004.7499999999995 2004.7499999999995 0 0 1 656.25 744M843.75 410.4166666666667C835.6666666666666 403.5416666666668 826.2499999999999 398.125 815.7083333333333 394.5833333333334A999.0833333333331 999.0833333333331 0 0 0 500 343.75C389.6666666666667 343.75 283.5416666666667 361.625 184.2916666666667 394.5833333333334A84 84 0 0 0 156.25 410.4166666666668M156.25 410.4166666666668A90.8333333333333 90.8333333333333 0 0 0 125 479.625V637.25C125 682.2916666666667 157 721.2083333333334 201.5416666666667 727.875A2004.6249999999995 2004.6249999999995 0 0 0 343.75 744M656.25 744V781.25A93.75 93.75 0 0 1 562.5 875H437.5A93.75 93.75 0 0 1 343.75 781.25V744M656.25 744A2027.7916666666663 2027.7916666666663 0 0 1 343.75 744M500 468.75H500.3333333333333V468.4166666666667H500V468.75z" />
    <glyph glyph-name="bug-ant"
      unicode="&#xEA4F;"
      horiz-adv-x="1000" d="M500 468.75C547.8333333333333 468.75 594.9166666666666 465.4166666666667 640.9583333333333 458.875C684.1666666666665 452.7916666666666 718.7083333333333 418.6250000000001 718.7083333333333 375C718.7083333333333 219.6666666666666 620.7916666666666 93.75 499.9583333333333 93.75S281.25 219.6666666666666 281.25 375C281.25 418.5833333333334 315.8333333333333 452.7916666666667 359 458.875A1008.4999999999998 1008.4999999999998 0 0 0 500 468.75zM500 468.75C620.1249999999999 468.75 735.2916666666665 447.5833333333334 841.9583333333334 408.75A996.25 996.25 0 0 0 793.9583333333333 156.25M500 468.75C379.875 468.75 264.7083333333333 447.5833333333334 158 408.75C163.2083333333333 321.0833333333334 179.6666666666666 236.4166666666668 206.0416666666667 156.25M500 468.75A93.75 93.75 0 0 1 593.6666666666666 566.8333333333333M500 468.75A93.75 93.75 0 0 0 406.3333333333333 566.8333333333333M500 656.25C541.4583333333333 656.25 582.125 659.5833333333334 621.75 666.0833333333334C638.5416666666666 668.8333333333334 652.5833333333334 681 654.875 697.8333333333334A157.4166666666667 157.4166666666667 0 0 1 638.25 791.5833333333334M500 656.25C458.5416666666667 656.25 417.9166666666667 659.5833333333334 378.25 666.0833333333334C361.5 668.8333333333334 347.4166666666667 681 345.125 697.8333333333334A155.5833333333333 155.5833333333333 0 0 0 361.7916666666667 791.7083333333334M500 656.25A93.75 93.75 0 0 1 406.3333333333333 566.8333333333333M500 656.25A93.75 93.75 0 0 0 593.6666666666666 566.8333333333333M361.7916666666667 791.6666666666667A251.3333333333334 251.3333333333334 0 0 0 313.6666666666667 833.4166666666666C316.5833333333333 859.6666666666666 324.9166666666667 884.3333333333334 337.5833333333333 906.2083333333334M361.7916666666667 791.6666666666667A156.25 156.25 0 0 0 638.25 791.6666666666667M638.25 791.6666666666667C656.0416666666666 803.4583333333334 672.2083333333333 817.5 686.3749999999999 833.2916666666666A186.2916666666667 186.2916666666667 0 0 1 662.4166666666666 906.2916666666666M205.0416666666667 750A1002 1002 0 0 1 188.7083333333333 611.9166666666667C258.2083333333333 589.1666666666667 331.0416666666667 573.8333333333334 406.3333333333333 566.8333333333333M794.9999999999999 750C803.5416666666665 705 809.0416666666665 658.875 811.3333333333331 611.9166666666667A995.0833333333331 995.0833333333331 0 0 0 593.7083333333333 566.8333333333333" />
    <glyph glyph-name="building-library"
      unicode="&#xEA50;"
      horiz-adv-x="1000" d="M500 125V468.75M656.25 125V468.75M343.75 125V468.75M125 625L500 875L875 625M812.5 125V569.5A2015 2015 0 0 1 500 593.75C393.7083333333333 593.75 289.3333333333333 585.4166666666667 187.5 569.5V125M125 125H875M500 718.75H500.3333333333333V718.4166666666667H500V718.75z" />
    <glyph glyph-name="building-office-2"
      unicode="&#xEA51;"
      horiz-adv-x="1000" d="M93.75 125H906.25M156.25 875V125M593.75 875V125M843.75 687.5V125M281.25 718.75H312.5M281.25 593.75H312.5M281.25 468.75H312.5M437.5 718.75H468.75M437.5 593.75H468.75M437.5 468.75H468.75M281.25 125V265.625C281.25 291.5 302.25 312.5 328.125 312.5H421.875C447.75 312.5 468.75 291.5 468.75 265.625V125M125 875H625M593.75 687.5H875M718.75 531.25H719.0833333333333V530.9166666666667H718.75V531.25zM718.75 406.25H719.0833333333333V405.9166666666668H718.75V406.25zM718.75 281.25H719.0833333333333V280.9166666666668H718.75V281.25z" />
    <glyph glyph-name="building-office"
      unicode="&#xEA52;"
      horiz-adv-x="1000" d="M156.25 125H843.75M187.5 875H812.5M218.75 875V125M781.25 875V125M375 718.75H437.5M375 593.75H437.5M375 468.75H437.5M562.5 718.75H625M562.5 593.75H625M562.5 468.75H625M375 125V265.625C375 291.5 396 312.5 421.875 312.5H578.125C604 312.5 625 291.5 625 265.625V125" />
    <glyph glyph-name="building-storefront"
      unicode="&#xEA53;"
      horiz-adv-x="1000" d="M562.5 125V437.5A31.25 31.25 0 0 0 593.75 468.75H718.75A31.25 31.25 0 0 0 750 437.5V125M562.5 125H98.3333333333333M562.5 125H750M750 125H901.6666666666666M843.75 125V610.4583333333334M156.25 125V610.4583333333334M156.25 610.4583333333334A125.0416666666667 125.0416666666667 0 0 1 312.5 636.0833333333334A124.7083333333333 124.7083333333333 0 0 1 406.25 593.75C443.5833333333333 593.75 477.0833333333333 610.125 500 636.0833333333334A124.7083333333333 124.7083333333333 0 0 1 593.75 593.75C631.0833333333334 593.75 664.5833333333333 610.125 687.5 636.0416666666667A125.0416666666667 125.0416666666667 0 0 1 843.75 610.4583333333334M156.25 610.4583333333334A125.1666666666667 125.1666666666667 0 0 0 130.375 807.125L179.9166666666666 856.7083333333333A62.5 62.5 0 0 0 224.0833333333333 875H775.875A62.5 62.5 0 0 0 820.0416666666666 856.6666666666667L869.625 807.125A125 125 0 0 0 843.7500000000001 610.4583333333334M281.25 250H437.5A31.25 31.25 0 0 1 468.75 281.25V437.5A31.25 31.25 0 0 1 437.5 468.75H281.25A31.25 31.25 0 0 1 250 437.5V281.25C250 264 264 250 281.25 250z" />
    <glyph glyph-name="cake"
      unicode="&#xEA54;"
      horiz-adv-x="1000" d="M500 656.25V718.75M500 656.25C443.5416666666667 656.25 387.625 653.9166666666667 332.3333333333333 649.3333333333333C285.2083333333333 645.4166666666667 250 605.2916666666667 250 558V453.2916666666666M500 656.25C556.4583333333334 656.25 612.3749999999999 653.9166666666667 667.6666666666666 649.3333333333333C714.7916666666666 645.4166666666667 750 605.2916666666667 750 558V453.2916666666666M625 656.25V718.75M375 656.25V718.75M875 312.5L812.5 281.25A139.75 139.75 0 0 0 687.5 281.25A139.75 139.75 0 0 1 562.5 281.25A139.75 139.75 0 0 0 437.5 281.25A139.75 139.75 0 0 1 312.5 281.25A139.75 139.75 0 0 0 187.5 281.25L125 312.5M750 453.2916666666666A2019.7499999999995 2019.7499999999995 0 0 1 500 468.75C415.3333333333333 468.75 331.9166666666667 463.5 250 453.2916666666666M750 453.2916666666666C766.25 451.25 782.375 449.0416666666667 798.4583333333333 446.625C843.0416666666666 439.9583333333334 875 401.0416666666668 875 356V140.625C875 114.7500000000001 853.9999999999999 93.75 828.125 93.75H171.875A46.875 46.875 0 0 0 125 140.625V356.0416666666668C125 401.0416666666668 157 439.9583333333334 201.5416666666667 446.625A1990.8333333333337 1990.8333333333337 0 0 0 250 453.3333333333334M511.0416666666667 870.4166666666667A15.625 15.625 0 1 0 488.9583333333334 870.4166666666667L500 881.4583333333334L511.0416666666667 870.4166666666666zM386.0416666666667 870.4166666666667A15.625 15.625 0 1 0 363.9583333333334 870.4166666666667L375 881.4583333333334L386.0416666666667 870.4166666666666zM636.0416666666666 870.4166666666667A15.625 15.625 0 1 0 613.9583333333334 870.4166666666667L625 881.4583333333334L636.0416666666666 870.4166666666666z" />
    <glyph glyph-name="calculator"
      unicode="&#xEA55;"
      horiz-adv-x="1000" d="M656.25 343.75V250M343.75 531.25H344.0833333333333V530.9166666666667H343.75V531.25zM343.75 437.5H344.0833333333333V437.1666666666668H343.75V437.5zM343.75 343.75H344.0833333333333V343.4166666666668H343.75V343.75zM343.75 250H344.0833333333333V249.6666666666668H343.75V250zM447.8333333333334 531.25H448.125V530.9166666666667H447.8333333333334V531.25zM447.8333333333334 437.5H448.125V437.1666666666668H447.8333333333334V437.5zM447.8333333333334 343.75H448.125V343.4166666666668H447.8333333333334V343.75zM447.8333333333334 250H448.125V249.6666666666668H447.8333333333334V250zM552.1666666666666 531.25H552.5V530.9166666666667H552.1666666666666V531.25zM552.1666666666666 437.5H552.5V437.1666666666668H552.1666666666666V437.5zM552.1666666666666 343.75H552.5V343.4166666666668H552.1666666666666V343.75zM552.1666666666666 250H552.5V249.6666666666668H552.1666666666666V250zM656.25 531.25H656.5833333333333V530.9166666666667H656.25V531.25zM656.25 437.5H656.5833333333333V437.1666666666668H656.25V437.5zM343.75 750H656.25V656.25H343.75V750zM500 906.25C421.1666666666667 906.25 343.4166666666667 901.6666666666666 266.9583333333333 892.8333333333334C221.125 887.5 187.5 847.9166666666667 187.5 801.7916666666667V187.5A93.75 93.75 0 0 1 281.25 93.75H718.75A93.75 93.75 0 0 1 812.5 187.5V801.7916666666667C812.5 847.9583333333334 778.9166666666666 887.5 733.0416666666666 892.8333333333334A2021.1249999999995 2021.1249999999995 0 0 1 500 906.25z" />
    <glyph glyph-name="calendar-days"
      unicode="&#xEA56;"
      horiz-adv-x="1000" d="M281.25 875V781.25M718.75 875V781.25M125 218.75V687.5A93.75 93.75 0 0 0 218.75 781.25H781.25A93.75 93.75 0 0 0 875 687.5V218.75M125 218.75A93.75 93.75 0 0 1 218.75 125H781.25A93.75 93.75 0 0 1 875 218.75M125 218.75V531.25A93.75 93.75 0 0 0 218.75 625H781.25A93.75 93.75 0 0 0 875 531.25V218.75M500 468.75H500.3333333333333V468.4166666666667H500V468.75zM500 375H500.3333333333333V374.6666666666668H500V375zM500 281.25H500.3333333333333V280.9166666666668H500V281.25zM406.25 375H406.5833333333333V374.6666666666668H406.25V375zM406.25 281.25H406.5833333333333V280.9166666666668H406.25V281.25zM312.5 375H312.8333333333333V374.6666666666668H312.5V375zM312.5 281.25H312.8333333333333V280.9166666666668H312.5V281.25zM593.75 468.75H594.0833333333333V468.4166666666667H593.75V468.75zM593.75 375H594.0833333333333V374.6666666666668H593.75V375zM593.75 281.25H594.0833333333333V280.9166666666668H593.75V281.25zM687.5 468.75H687.8333333333333V468.4166666666667H687.5V468.75zM687.5 375H687.8333333333333V374.6666666666668H687.5V375z" />
    <glyph glyph-name="calendar"
      unicode="&#xEA57;"
      horiz-adv-x="1000" d="M281.25 875V781.25M718.75 875V781.25M125 218.75V687.5A93.75 93.75 0 0 0 218.75 781.25H781.25A93.75 93.75 0 0 0 875 687.5V218.75M125 218.75A93.75 93.75 0 0 1 218.75 125H781.25A93.75 93.75 0 0 1 875 218.75M125 218.75V531.25A93.75 93.75 0 0 0 218.75 625H781.25A93.75 93.75 0 0 0 875 531.25V218.75" />
    <glyph glyph-name="camera"
      unicode="&#xEA58;"
      horiz-adv-x="1000" d="M284.4583333333333 742.7083333333334A96.25 96.25 0 0 0 216.0833333333333 698.75C200.25 696.5 184.5416666666667 694.0833333333333 168.8333333333333 691.4583333333333C124.9583333333333 684.1666666666667 93.75 645.5416666666667 93.75 601.0833333333334V250A93.75 93.75 0 0 1 187.5 156.25H812.5A93.75 93.75 0 0 1 906.25 250V601.0833333333334C906.25 645.5416666666667 875 684.1666666666667 831.1666666666666 691.4583333333334A1994.3749999999995 1994.3749999999995 0 0 1 783.9166666666666 698.75A96.25 96.25 0 0 0 715.5833333333333 742.7083333333334L681.3333333333333 797.5416666666667A91.3333333333333 91.3333333333333 0 0 1 609 840.8333333333334A2032.25 2032.25 0 0 1 391 840.8333333333334A91.3333333333333 91.3333333333333 0 0 1 318.6666666666667 797.5416666666667L284.4583333333334 742.7083333333334zM687.5 468.75A187.5 187.5 0 1 0 312.5 468.75A187.5 187.5 0 0 0 687.5 468.75zM781.25 562.5H781.5833333333333V562.1666666666667H781.25V562.5z" />
    <glyph glyph-name="chart-bar-square"
      unicode="&#xEA59;"
      horiz-adv-x="1000" d="M312.5 406.25V312.5M437.5 500V312.5M562.5 593.75V312.5M687.5 687.5V312.5M250 156.25H750A93.75 93.75 0 0 1 843.75 250V750A93.75 93.75 0 0 1 750 843.75H250A93.75 93.75 0 0 1 156.25 750V250A93.75 93.75 0 0 1 250 156.25z" />
    <glyph glyph-name="chart-bar"
      unicode="&#xEA5A;"
      horiz-adv-x="1000" d="M125 453.125C125 479 146 500 171.875 500H265.625C291.5 500 312.5 479 312.5 453.125V171.875C312.5 146.0000000000001 291.5 125 265.625 125H171.875A46.875 46.875 0 0 0 125 171.875V453.125zM406.25 640.625C406.25 666.5 427.25 687.5 453.125 687.5H546.875C572.75 687.5 593.75 666.5 593.75 640.625V171.875C593.75 146.0000000000001 572.75 125 546.875 125H453.125A46.875 46.875 0 0 0 406.25 171.875V640.625zM687.5 828.125C687.5 854 708.5 875 734.375 875H828.125C853.9999999999999 875 875 854 875 828.125V171.875C875 146.0000000000001 853.9999999999999 125 828.125 125H734.375A46.875 46.875 0 0 0 687.5 171.875V828.125z" />
    <glyph glyph-name="chart-pie"
      unicode="&#xEA5B;"
      horiz-adv-x="1000" d="M437.5 750A312.5 312.5 0 1 1 750 437.5H437.5V750zM562.5 562.5H875A312.5 312.5 0 0 1 562.5 875V562.5z" />
    <glyph glyph-name="chat-bubble-bottom-center-text"
      unicode="&#xEA5C;"
      horiz-adv-x="1000" d="M312.5 656.25H687.5M312.5 531.25H500M93.75 468.3333333333334C93.75 401.6666666666668 140.5416666666667 343.5833333333334 206.5416666666667 333.875C253.5833333333334 326.9583333333334 301.125 321.6666666666667 349.1666666666667 318.0833333333334C363.75 317.0000000000001 377.0833333333333 309.3333333333334 385.2083333333333 297.2083333333334L500 125L614.7916666666666 297.2083333333334A47.5 47.5 0 0 0 650.8333333333333 318.0833333333334A2007.1666666666663 2007.1666666666663 0 0 1 793.4583333333333 333.875C859.4583333333333 343.5833333333334 906.25 401.625 906.25 468.375V719.125C906.25 785.875 859.4583333333333 843.9166666666667 793.4583333333333 853.625A2016.4166666666663 2016.4166666666663 0 0 1 500 875C400.3333333333333 875 302.3333333333333 867.7083333333334 206.5416666666667 853.625C140.5416666666667 843.9166666666667 93.75 785.8333333333334 93.75 719.125V468.375z" />
    <glyph glyph-name="chat-bubble-bottom-center"
      unicode="&#xEA5D;"
      horiz-adv-x="1000" d="M93.75 468.3333333333334C93.75 401.6666666666668 140.5416666666667 343.5833333333334 206.5416666666667 333.875C251.0416666666667 327.3333333333335 296.0416666666667 322.25 341.4583333333333 318.7083333333334C360.875 317.1666666666668 378.6666666666667 307.0000000000001 389.5 290.7500000000001L500 125L610.5 290.7500000000001C621.3333333333334 307.0000000000001 639.125 317.1666666666668 658.5416666666667 318.6666666666669C703.9583333333334 322.2500000000001 748.9583333333334 327.3333333333335 793.4583333333334 333.8750000000003C859.4583333333334 343.5833333333335 906.2500000000002 401.6250000000001 906.2500000000002 468.3750000000001V719.125C906.2500000000002 785.875 859.4583333333334 843.9166666666667 793.4583333333334 853.625A2016.4166666666663 2016.4166666666663 0 0 1 500 875C400.3333333333333 875 302.3333333333333 867.7083333333334 206.5416666666667 853.625C140.5416666666667 843.9166666666667 93.75 785.8333333333334 93.75 719.125V468.375z" />
    <glyph glyph-name="chat-bubble-left-ellipsis"
      unicode="&#xEA5E;"
      horiz-adv-x="1000" d="M359.375 593.75A15.625 15.625 0 1 0 328.125 593.75A15.625 15.625 0 0 0 359.375 593.75zM359.375 593.75H343.75M515.625 593.75A15.625 15.625 0 1 0 484.375 593.75A15.625 15.625 0 0 0 515.625 593.75zM515.625 593.75H500M671.875 593.75A15.625 15.625 0 1 0 640.625 593.75A15.625 15.625 0 0 0 671.875 593.75zM671.875 593.75H656.25M93.75 468.3333333333334C93.75 401.6666666666668 140.5416666666667 343.5833333333334 206.5416666666667 333.875C251.8333333333333 327.2083333333335 297.5833333333333 322.0833333333334 343.75 318.5V125L518.0833333333334 299.2916666666668A47.5 47.5 0 0 0 550.5 313.1250000000001A2012.2499999999995 2012.2499999999995 0 0 1 793.4166666666667 333.875C859.4583333333334 343.5833333333334 906.25 401.625 906.25 468.375V719.125C906.25 785.875 859.4583333333333 843.9166666666667 793.4583333333333 853.625A2016.4166666666663 2016.4166666666663 0 0 1 500 875C400.3333333333333 875 302.3333333333333 867.7083333333334 206.5416666666667 853.625C140.5416666666667 843.9166666666667 93.75 785.8333333333334 93.75 719.125V468.375z" />
    <glyph glyph-name="chat-bubble-left-right"
      unicode="&#xEA5F;"
      horiz-adv-x="1000" d="M843.75 645.375C880.5833333333333 633.5416666666667 906.25 598.375 906.25 558V379.4166666666668C906.25 332.0833333333335 870.9583333333333 291.9166666666668 823.7499999999999 288.0416666666668C809.5833333333333 286.9166666666667 795.4166666666666 285.8750000000001 781.25 285.0416666666668V156.25L656.25 281.25C599.8333333333334 281.25 544 283.5416666666668 488.75 288.0416666666668A88.125 88.125 0 0 0 454.375 298.1250000000001M843.75 645.375A88.5833333333333 88.5833333333333 0 0 1 823.9166666666666 649.3333333333335A2026.6666666666663 2026.6666666666663 0 0 1 488.5833333333333 649.3333333333335C441.4583333333333 645.4166666666667 406.25 605.2916666666667 406.25 558V379.4166666666668C406.25 344.5416666666668 425.4166666666667 313.5833333333335 454.3749999999999 298.1250000000001M843.75 645.375V723.4583333333334C843.75 791 795.7499999999999 849.5416666666667 728.75 858.25A2018.9583333333333 2018.9583333333333 0 0 1 468.75 875C380.625 875 293.8333333333333 869.2916666666667 208.75 858.25C141.75 849.5416666666666 93.75 791 93.75 723.4583333333333V464.0416666666667C93.75 396.5 141.75 337.9583333333334 208.75 329.2500000000001C232.7916666666667 326.1250000000001 256.9583333333333 323.4166666666668 281.25 321.1666666666668V125L454.375 298.1250000000001" />
    <glyph glyph-name="chat-bubble-left"
      unicode="&#xEA60;"
      horiz-adv-x="1000" d="M93.75 468.3333333333334C93.75 401.6666666666668 140.5416666666667 343.5833333333334 206.5416666666667 333.875C251.8333333333333 327.2083333333335 297.5833333333333 322.0833333333334 343.75 318.5V125L513.5833333333334 294.8333333333334A63.5833333333333 63.5833333333333 0 0 0 556.7916666666666 313.2916666666668A2011.7499999999995 2011.7499999999995 0 0 1 793.4583333333333 333.8750000000001C859.4583333333333 343.5833333333335 906.25 401.6250000000001 906.25 468.3750000000001V719.125C906.25 785.875 859.4583333333333 843.9166666666667 793.4583333333333 853.625A2016.4166666666663 2016.4166666666663 0 0 1 500 875C400.3333333333333 875 302.3333333333333 867.7083333333334 206.5416666666667 853.625C140.5416666666667 843.9166666666667 93.75 785.8333333333334 93.75 719.125V468.375z" />
    <glyph glyph-name="chat-bubble-oval-left-ellipsis"
      unicode="&#xEA61;"
      horiz-adv-x="1000" d="M359.375 500A15.625 15.625 0 1 0 328.125 500A15.625 15.625 0 0 0 359.375 500zM359.375 500H343.75M515.625 500A15.625 15.625 0 1 0 484.375 500A15.625 15.625 0 0 0 515.625 500zM515.625 500H500M671.875 500A15.625 15.625 0 1 0 640.625 500A15.625 15.625 0 0 0 671.875 500zM671.875 500H656.25M875 500C875 310.1666666666667 707.0833333333333 156.25 500 156.25A406.8333333333333 406.8333333333333 0 0 0 393.5416666666667 170.2916666666668A248.8333333333333 248.8333333333333 0 0 0 225.4166666666667 126.2500000000001A248.7083333333333 248.7083333333333 0 0 0 205.6666666666667 128.9583333333335A186.6666666666667 186.6666666666667 0 0 1 246.4166666666667 213.3333333333334C250.1666666666667 232.3750000000001 240.875 250.8750000000001 226.9583333333333 264.4166666666668C163.75 325.9166666666667 125 408.7916666666668 125 500C125 689.8333333333334 292.9166666666667 843.75 500 843.75S875 689.8333333333334 875 500z" />
    <glyph glyph-name="chat-bubble-oval-left"
      unicode="&#xEA62;"
      horiz-adv-x="1000" d="M500 156.25C707.0833333333333 156.25 875 310.1666666666667 875 500S707.0833333333333 843.75 500 843.75S125 689.8333333333334 125 500C125 412.3333333333334 160.7916666666667 332.375 219.7083333333333 271.6666666666668C237.7083333333333 253.0416666666668 250.5416666666667 228.3333333333334 244.125 203.2916666666666A186.7916666666666 186.7916666666666 0 0 0 205.6666666666667 128.9166666666666A248.7083333333333 248.7083333333333 0 0 1 250 125C303.4166666666667 125 352.9166666666667 141.7500000000001 393.5416666666667 170.2916666666668C427.2916666666667 161.1250000000001 463.0416666666666 156.25 500 156.25z" />
    <glyph glyph-name="check-badge"
      unicode="&#xEA63;"
      horiz-adv-x="1000" d="M375 468.75L468.75 375L625 593.75M875 500C875 447.1666666666667 848.75 400.4166666666667 808.625 372.1666666666668A156.0416666666667 156.0416666666667 0 0 0 765.1666666666666 234.8333333333334A156.0416666666667 156.0416666666667 0 0 0 627.8333333333334 191.375A156.0416666666667 156.0416666666667 0 0 0 500 125C447.1666666666667 125 400.4166666666667 151.25 372.1666666666667 191.375A156.0833333333333 156.0833333333333 0 0 0 234.8333333333334 234.8333333333334A156.0416666666667 156.0416666666667 0 0 0 191.375 372.1666666666667A156.0416666666667 156.0416666666667 0 0 0 125 500C125 552.8333333333334 151.25 599.5833333333334 191.375 627.8333333333333A156.0416666666667 156.0416666666667 0 0 0 234.8333333333333 765.1666666666666A156.0833333333333 156.0833333333333 0 0 0 372.1666666666667 808.625A156.0833333333333 156.0833333333333 0 0 0 500 875C552.8333333333334 875 599.5833333333334 848.75 627.8333333333333 808.625A156.0833333333333 156.0833333333333 0 0 0 765.1666666666666 765.1666666666667A156.0833333333333 156.0833333333333 0 0 0 808.625 627.8333333333333A156.0416666666667 156.0416666666667 0 0 0 875 500z" />
    <glyph glyph-name="check-circle"
      unicode="&#xEA64;"
      horiz-adv-x="1000" d="M375 468.75L468.75 375L625 593.75M875 500A375 375 0 1 0 125 500A375 375 0 0 0 875 500z" />
    <glyph glyph-name="check"
      unicode="&#xEA65;"
      horiz-adv-x="1000" d="M187.5 468.75L437.5 218.75L812.5 781.25" />
    <glyph glyph-name="chevron-double-down"
      unicode="&#xEA66;"
      horiz-adv-x="1000" d="M812.5 781.25L500 468.75L187.5 781.25M812.5 531.25L500 218.75L187.5 531.25" />
    <glyph glyph-name="chevron-double-left"
      unicode="&#xEA67;"
      horiz-adv-x="1000" d="M781.25 187.5L468.75 500L781.25 812.5M531.25 187.5L218.75 500L531.25 812.5" />
    <glyph glyph-name="chevron-double-right"
      unicode="&#xEA68;"
      horiz-adv-x="1000" d="M468.75 812.5L781.25 500L468.75 187.5M218.75 812.5L531.25 500L218.75 187.5" />
    <glyph glyph-name="chevron-double-up"
      unicode="&#xEA69;"
      horiz-adv-x="1000" d="M187.5 468.75L500 781.25L812.5 468.75M187.5 218.75L500 531.25L812.5 218.75" />
    <glyph glyph-name="chevron-down"
      unicode="&#xEA6A;"
      horiz-adv-x="1000" d="M812.5 656.25L500 343.75L187.5 656.25" />
    <glyph glyph-name="chevron-left"
      unicode="&#xEA6B;"
      horiz-adv-x="1000" d="M656.25 187.5L343.75 500L656.25 812.5" />
    <glyph glyph-name="chevron-right"
      unicode="&#xEA6C;"
      horiz-adv-x="1000" d="M343.75 812.5L656.25 500L343.75 187.5" />
    <glyph glyph-name="chevron-up-down"
      unicode="&#xEA6D;"
      horiz-adv-x="1000" d="M343.75 375L500 218.75L656.25 375M343.75 625L500 781.25L656.25 625" />
    <glyph glyph-name="chevron-up"
      unicode="&#xEA6E;"
      horiz-adv-x="1000" d="M187.5 343.75L500 656.25L812.5 343.75" />
    <glyph glyph-name="circle-stack"
      unicode="&#xEA6F;"
      horiz-adv-x="1000" d="M843.75 734.375C843.75 639.4583333333333 689.8333333333334 562.5 500 562.5S156.25 639.4583333333333 156.25 734.375M843.75 734.375C843.75 829.2916666666667 689.8333333333334 906.25 500 906.25S156.25 829.2916666666666 156.25 734.375M843.75 734.375V265.625C843.75 170.7083333333335 689.8333333333334 93.75 500 93.75S156.25 170.7083333333335 156.25 265.625V734.375M843.75 734.375V578.125M156.25 734.375V578.125M843.75 578.125V421.875C843.75 326.9583333333334 689.8333333333334 250 500 250S156.25 326.9583333333334 156.25 421.875V578.125M843.75 578.125C843.75 483.2083333333334 689.8333333333334 406.25 500 406.25S156.25 483.2083333333334 156.25 578.125" />
    <glyph glyph-name="clipboard-document-check"
      unicode="&#xEA70;"
      horiz-adv-x="1000" d="M472.9166666666666 840.1666666666667C470.2083333333333 831.4166666666666 468.75 822.125 468.75 812.5C468.75 795.25 482.75 781.25 500 781.25H687.5A31.25 31.25 0 0 1 718.75 812.5A93.75 93.75 0 0 1 714.5833333333333 840.1666666666667M472.9166666666666 840.1666666666667A93.7916666666667 93.7916666666667 0 0 0 562.5 906.25H625C667.1666666666666 906.25 702.7916666666666 878.4166666666666 714.5833333333333 840.1666666666666M472.9166666666666 840.1666666666666C457.2499999999999 839.2083333333333 441.6666666666666 838.0833333333334 426.0833333333332 836.8333333333333C378.9583333333333 832.9166666666667 343.75 792.7916666666667 343.75 745.5V656.25M714.5833333333333 840.1666666666666C730.25 839.2083333333333 745.8333333333333 838.0833333333334 761.4166666666665 836.8333333333333C808.5416666666665 832.9166666666666 843.7499999999998 792.7916666666666 843.7499999999998 745.5V312.5A93.75 93.75 0 0 0 750 218.75H656.25M343.75 656.25H203.125C177.25 656.25 156.25 635.25 156.25 609.375V140.625C156.25 114.7500000000001 177.25 93.75 203.125 93.75H609.375C635.25 93.75 656.25 114.7500000000001 656.25 140.625V218.75M343.75 656.25H609.375C635.25 656.25 656.25 635.25 656.25 609.375V218.75M312.5 343.75L375 281.25L500 437.5" />
    <glyph glyph-name="clipboard-document-list"
      unicode="&#xEA71;"
      horiz-adv-x="1000" d="M375 500H531.25M375 375H531.25M375 250H531.25M656.25 218.75H750A93.75 93.75 0 0 1 843.75 312.5V745.5C843.75 792.7916666666667 808.5416666666666 832.9166666666667 761.4166666666666 836.8333333333334A2017.6666666666663 2017.6666666666663 0 0 1 714.625 840.1666666666667M472.9166666666666 840.1666666666667C470.2083333333333 831.4166666666667 468.75 822.125 468.75 812.5C468.75 795.25 482.75 781.25 500 781.25H687.5A31.25 31.25 0 0 1 718.75 812.5A93.75 93.75 0 0 1 714.5833333333333 840.1666666666667M472.9166666666666 840.1666666666667A93.7916666666667 93.7916666666667 0 0 0 562.5 906.25H625C667.1666666666666 906.25 702.7916666666666 878.4166666666666 714.5833333333333 840.1666666666666M472.9166666666666 840.1666666666666C457.2499999999999 839.2083333333333 441.6666666666666 838.0833333333334 426.0833333333332 836.8333333333333C378.9583333333333 832.9166666666667 343.75 792.7916666666667 343.75 745.5V656.25M343.75 656.25H203.125C177.25 656.25 156.25 635.25 156.25 609.375V140.625C156.25 114.7500000000001 177.25 93.75 203.125 93.75H609.375C635.25 93.75 656.25 114.7500000000001 656.25 140.625V609.375C656.25 635.25 635.25 656.25 609.375 656.25H343.75zM281.25 500H281.5833333333333V499.6666666666667H281.25V500zM281.25 375H281.5833333333333V374.6666666666668H281.25V375zM281.25 250H281.5833333333333V249.6666666666668H281.25V250z" />
    <glyph glyph-name="clipboard-document"
      unicode="&#xEA72;"
      horiz-adv-x="1000" d="M343.75 687.5V745.5C343.75 792.7916666666667 378.9583333333333 832.9166666666667 426.0833333333333 836.8333333333334C441.6249999999999 838.0833333333334 457.2499999999999 839.2083333333334 472.8749999999999 840.1666666666667M656.25 250H750A93.75 93.75 0 0 1 843.75 343.75V745.5C843.75 792.7916666666667 808.5416666666666 832.9166666666667 761.4166666666666 836.8333333333334A2017.6666666666663 2017.6666666666663 0 0 1 714.625 840.1666666666667M656.25 218.75V296.875A140.625 140.625 0 0 1 515.625 437.5H453.125A46.875 46.875 0 0 0 406.25 484.375V546.875A140.625 140.625 0 0 1 265.625 687.5H218.75M714.5833333333333 840.1666666666667A93.7916666666667 93.7916666666667 0 0 1 625 906.25H562.5A93.7916666666667 93.7916666666667 0 0 1 472.9166666666666 840.1666666666666M714.5833333333333 840.1666666666666C717.2916666666666 831.4166666666666 718.75 822.125 718.75 812.5V781.25H468.75V812.5C468.75 822.125 470.2083333333333 831.4166666666666 472.9166666666666 840.1666666666667M281.25 687.5H203.125C177.25 687.5 156.25 666.5 156.25 640.625V140.625C156.25 114.7500000000001 177.25 93.75 203.125 93.75H609.375C635.25 93.75 656.25 114.7500000000001 656.25 140.625V312.5A375 375 0 0 1 281.25 687.5z" />
    <glyph glyph-name="clipboard"
      unicode="&#xEA73;"
      horiz-adv-x="1000" d="M652.75 838A93.75 93.75 0 0 1 562.5 906.25H437.5C394.5833333333333 906.25 358.3333333333333 877.375 347.25 838M652.75 838C655.0416666666666 829.9166666666667 656.25 821.3333333333334 656.25 812.5V812.5A31.25 31.25 0 0 0 625 781.25H375A31.25 31.25 0 0 0 343.75 812.5V812.5C343.75 821.3333333333334 345 829.9166666666667 347.25 838M652.75 838C679.6666666666666 835.9583333333334 706.4166666666666 833.4166666666667 733.0416666666666 830.3333333333334C778.875 825 812.5 785.4583333333334 812.5 739.2916666666667V187.5A93.75 93.75 0 0 0 718.75 93.75H281.25A93.75 93.75 0 0 0 187.5 187.5V739.2916666666667C187.5 785.4583333333334 221.0833333333333 825 266.9583333333333 830.3333333333334A2008.6666666666663 2008.6666666666663 0 0 0 347.25 838" />
    <glyph glyph-name="clock"
      unicode="&#xEA74;"
      horiz-adv-x="1000" d="M500 750V500H687.5M875 500A375 375 0 1 0 125 500A375 375 0 0 0 875 500z" />
    <glyph glyph-name="cloud-arrow-down"
      unicode="&#xEA75;"
      horiz-adv-x="1000" d="M500 593.75V312.5M500 312.5L375 437.5M500 312.5L625 437.5M281.25 187.5A187.5 187.5 0 0 0 222.5 553.125A218.75 218.75 0 0 0 648.875 650.2083333333334A125 125 0 0 0 805.4583333333333 489.8750000000001A156.3333333333333 156.3333333333333 0 0 0 750 187.5H281.25z" />
    <glyph glyph-name="cloud-arrow-up"
      unicode="&#xEA76;"
      horiz-adv-x="1000" d="M500 312.5V593.75M500 593.75L625 468.75M500 593.75L375 468.75M281.25 187.5A187.5 187.5 0 0 0 222.5 553.125A218.75 218.75 0 0 0 648.875 650.2083333333334A125 125 0 0 0 805.4583333333333 489.8750000000001A156.3333333333333 156.3333333333333 0 0 0 750 187.5H281.25z" />
    <glyph glyph-name="cloud"
      unicode="&#xEA77;"
      horiz-adv-x="1000" d="M93.75 375A187.5 187.5 0 0 1 281.25 187.5H750A156.25 156.25 0 0 1 805.5 489.875A125 125 0 0 1 648.9166666666667 650.2083333333334A218.75 218.75 0 0 1 222.5416666666667 553.125A187.5833333333334 187.5833333333334 0 0 1 93.75 375z" />
    <glyph glyph-name="code-bracket-square"
      unicode="&#xEA78;"
      horiz-adv-x="1000" d="M593.75 593.75L687.5 500L593.75 406.25M406.25 406.25L312.5 500L406.25 593.75M250 156.25H750A93.75 93.75 0 0 1 843.75 250V750A93.75 93.75 0 0 1 750 843.75H250A93.75 93.75 0 0 1 156.25 750V250A93.75 93.75 0 0 1 250 156.25z" />
    <glyph glyph-name="code-bracket"
      unicode="&#xEA79;"
      horiz-adv-x="1000" d="M718.75 718.75L937.5 500L718.75 281.25M281.25 281.25L62.5 500L281.25 718.75M593.75 843.75L406.25 156.25" />
    <glyph glyph-name="cog-6-tooth"
      unicode="&#xEA7A;"
      horiz-adv-x="1000" d="M399.75 835.8333333333334C403.5 858.4166666666667 423.0833333333333 875 446 875H554.0416666666666C576.9583333333333 875 596.5416666666665 858.4166666666666 600.2916666666665 835.8333333333334L609.1666666666665 782.4583333333334C611.7916666666665 766.875 622.2083333333333 753.875 636.0416666666665 746.2083333333334C639.1249999999999 744.5416666666667 642.1666666666665 742.75 645.2083333333331 740.9166666666667C658.7499999999999 732.75 675.2083333333333 730.2083333333334 689.9999999999999 735.75L740.7083333333331 754.75A46.875 46.875 0 0 0 797.7916666666665 734.3333333333334L851.7916666666665 640.7083333333334A46.875 46.875 0 0 0 840.9583333333331 581.0833333333335L799.1666666666665 546.6250000000001C786.9583333333331 536.5833333333335 780.9166666666665 521.0833333333335 781.2499999999998 505.2916666666668A321.7916666666667 321.7916666666667 0 0 0 781.2499999999998 494.6666666666667C780.9166666666665 478.9166666666667 786.9583333333331 463.4166666666667 799.1666666666665 453.3750000000001L840.9999999999999 418.9166666666668C858.6666666666665 404.3333333333335 863.2499999999998 379.1250000000001 851.8333333333333 359.3333333333335L797.75 265.7083333333335A46.875 46.875 0 0 0 740.7083333333334 245.2500000000001L690 264.2500000000001C675.2083333333334 269.7916666666668 658.7500000000001 267.2500000000001 645.1666666666667 259.0833333333335A269.5833333333333 269.5833333333333 0 0 0 636 253.7500000000003C622.2083333333334 246.1250000000003 611.7916666666667 233.1250000000001 609.1666666666666 217.5416666666669L600.2916666666667 164.166666666667C596.5416666666667 141.541666666667 576.9583333333334 125.0000000000002 554.0416666666667 125.0000000000002H445.9583333333335C423.0416666666668 125.0000000000002 403.5000000000001 141.5833333333335 399.7083333333335 164.166666666667L390.8333333333335 217.5416666666669C388.2500000000002 233.1250000000001 377.8333333333336 246.1250000000003 364.0000000000002 253.7916666666669A271.6666666666667 271.6666666666667 0 0 0 354.8333333333335 259.0833333333335C341.2916666666668 267.2500000000003 324.8333333333335 269.791666666667 310.0000000000001 264.2500000000001L259.2916666666668 245.2500000000001A46.875 46.875 0 0 0 202.2500000000001 265.6666666666668L148.2083333333335 359.2916666666668A46.875 46.875 0 0 0 159.0416666666668 418.9166666666668L200.8750000000001 453.3750000000001C213.0416666666668 463.3750000000001 219.0833333333335 478.9166666666667 218.7916666666668 494.6666666666667A288.8333333333333 288.8333333333333 0 0 0 218.7916666666668 505.2916666666668C219.0833333333334 521.1250000000002 213.0416666666668 536.5833333333335 200.8750000000001 546.6250000000002L159.0416666666668 581.0833333333335A46.875 46.875 0 0 0 148.2083333333335 640.6666666666667L202.2500000000001 734.2916666666667A46.875 46.875 0 0 0 259.3333333333335 754.7500000000001L310.0000000000001 735.7500000000001C324.8333333333335 730.2083333333335 341.2916666666668 732.7500000000001 354.8333333333335 740.9166666666667C357.8333333333335 742.75 360.9166666666669 744.5000000000001 364.0000000000002 746.2500000000001C377.8333333333336 753.8750000000001 388.2500000000002 766.8750000000001 390.8333333333335 782.4583333333335L399.7500000000002 835.7916666666667zM625 500A125 125 0 1 0 375 500A125 125 0 0 0 625 500z" />
    <glyph glyph-name="cog-8-tooth"
      unicode="&#xEA7B;"
      horiz-adv-x="1000" d="M430.9583333333333 835.8333333333334C434.7083333333333 858.4166666666667 454.2916666666667 875 477.2083333333333 875H522.75C545.6666666666666 875 565.2499999999999 858.4166666666666 568.9999999999999 835.8333333333334L575.2083333333333 798.5833333333334C578.1249999999999 780.9166666666667 591.2083333333333 766.75 607.7083333333331 759.8333333333334C624.2916666666665 753 643.3333333333333 753.9166666666667 657.9166666666665 764.3333333333334L688.6249999999999 786.2916666666667A46.875 46.875 0 0 0 749.0416666666665 781.2916666666667L781.2499999999998 749.0416666666667C797.4999999999999 732.8333333333334 799.5833333333331 707.2916666666667 786.2499999999999 688.625L764.2916666666665 657.9166666666667C753.8749999999998 643.3333333333335 752.9583333333333 624.3333333333335 759.8333333333331 607.75C766.7083333333331 591.2083333333334 780.8749999999998 578.1666666666667 798.5833333333331 575.25L835.7916666666665 569C858.4166666666665 565.25 874.9583333333333 545.7083333333335 874.9583333333333 522.7916666666667V477.2083333333334C874.9583333333333 454.2916666666667 858.4166666666666 434.7083333333335 835.7916666666665 430.9583333333335L798.5416666666666 424.7500000000001C780.8749999999999 421.8333333333335 766.7083333333333 408.7916666666669 759.8333333333334 392.2500000000001C752.9583333333334 375.6666666666669 753.875 356.6666666666669 764.2916666666666 342.0833333333335L786.25 311.3333333333334C799.5833333333334 292.7083333333335 797.4583333333333 267.1666666666669 781.25 250.9166666666668L748.9999999999999 218.7083333333335A46.875 46.875 0 0 0 688.6249999999999 213.7083333333335L657.8749999999999 235.6666666666669C643.2916666666665 246.0833333333335 624.2916666666665 247.0000000000001 607.7499999999999 240.1250000000001C591.1666666666666 233.2500000000001 578.1666666666665 219.0833333333335 575.2083333333333 201.4166666666669L568.9999999999999 164.166666666667C565.2499999999999 141.5833333333335 545.6666666666665 125.0000000000002 522.75 125.0000000000002H477.1666666666666C454.2499999999999 125.0000000000002 434.7083333333333 141.5833333333335 430.9166666666667 164.166666666667L424.75 201.4166666666669C421.7916666666667 219.0833333333335 408.75 233.2500000000001 392.2083333333333 240.1666666666669C375.625 247.0000000000003 356.625 246.0833333333335 342.0416666666667 235.6666666666669L311.2916666666667 213.7083333333335C292.6666666666667 200.3750000000001 267.125 202.5000000000001 250.875 218.7083333333335L218.6666666666667 250.9583333333335A46.875 46.875 0 0 0 213.6666666666667 311.3750000000001L235.625 342.0833333333335C246.0416666666667 356.6666666666668 247 375.6666666666668 240.125 392.2500000000001C233.25 408.7916666666669 219.0833333333333 421.8333333333335 201.375 424.7500000000001L164.125 431.0000000000001C141.5416666666667 434.7500000000001 124.9583333333333 454.3333333333335 124.9583333333333 477.2083333333335V522.7916666666667C124.9583333333333 545.7083333333335 141.5416666666667 565.2916666666667 164.125 569.0416666666667L201.375 575.25C219.0416666666667 578.1666666666667 233.25 591.2083333333334 240.125 607.75C247 624.3333333333334 246.0833333333333 643.3333333333333 235.625 657.9166666666667L213.7083333333334 688.6666666666667A46.875 46.875 0 0 0 218.7083333333334 749.0833333333334L250.9166666666667 781.2916666666667A46.875 46.875 0 0 0 311.3333333333333 786.2916666666667L342.0416666666667 764.3333333333334C356.625 753.9166666666667 375.6666666666667 753 392.2083333333333 759.875C408.75 766.75 421.7916666666667 780.9166666666667 424.7083333333333 798.5833333333334L430.9583333333333 835.8333333333334zM625 500A125 125 0 1 0 375 500A125 125 0 0 0 625 500z" />
    <glyph glyph-name="cog"
      unicode="&#xEA7C;"
      horiz-adv-x="1000" d="M187.5 500A312.5 312.5 0 0 1 812.5 500M187.5 500A312.5 312.5 0 1 0 812.5 500M187.5 500H125M812.5 500H875M812.5 500H500M147.625 371.7916666666668L206.375 393.1666666666668M793.6666666666667 606.9166666666666L852.4166666666667 628.2916666666666M212.75 258.9583333333334L260.6666666666667 299.125M739.4166666666667 700.875L787.2916666666667 741.0416666666666M312.5416666666667 175.2083333333333L343.7916666666667 229.375M656.2916666666666 770.625L687.5416666666666 824.7916666666666M434.9166666666668 130.7083333333333L445.7500000000001 192.2499999999999M554.2916666666667 807.7499999999999L565.1250000000001 869.2916666666665M565.1250000000001 130.7083333333334L554.2916666666667 192.2500000000001M445.75 807.75L434.9166666666667 869.2916666666667M687.5 175.25L656.25 229.375M312.5 824.7916666666667L500 500M787.2499999999999 258.9583333333334L739.3749999999999 299.125M260.6666666666667 700.9166666666667L212.75 741.0833333333333M852.4166666666665 371.75L793.6666666666665 393.125M206.4166666666667 606.875L147.6666666666666 628.2916666666666M500.0833333333333 500L343.8333333333333 229.375" />
    <glyph glyph-name="command-line"
      unicode="&#xEA7D;"
      horiz-adv-x="1000" d="M281.25 687.5L406.25 593.75L281.25 500M468.75 500H593.75M218.75 156.25H781.25A93.75 93.75 0 0 1 875 250V750A93.75 93.75 0 0 1 781.25 843.75H218.75A93.75 93.75 0 0 1 125 750V250A93.75 93.75 0 0 1 218.75 156.25z" />
    <glyph glyph-name="computer-desktop"
      unicode="&#xEA7E;"
      horiz-adv-x="1000" d="M375 281.25V239.2916666666667A125 125 0 0 0 338.375 150.875L312.5 125H687.5L661.625 150.875A125 125 0 0 0 625 239.2916666666667V281.25M875 781.25V375A93.75 93.75 0 0 0 781.25 281.25H218.75A93.75 93.75 0 0 0 125 375V781.25M875 781.25A93.75 93.75 0 0 1 781.25 875H218.75A93.75 93.75 0 0 1 125 781.25M875 781.25V500A93.75 93.75 0 0 0 781.25 406.25H218.75A93.75 93.75 0 0 0 125 500V781.25" />
    <glyph glyph-name="cpu-chip"
      unicode="&#xEA7F;"
      horiz-adv-x="1000" d="M343.75 875V812.5M187.5 656.25H125M875 656.25H812.5M187.5 500H125M875 500H812.5M187.5 343.75H125M875 343.75H812.5M343.75 187.5V125M500 875V812.5M500 187.5V125M656.25 875V812.5M656.25 187.5V125M281.25 187.5H718.75A93.75 93.75 0 0 1 812.5 281.25V718.75A93.75 93.75 0 0 1 718.75 812.5H281.25A93.75 93.75 0 0 1 187.5 718.75V281.25A93.75 93.75 0 0 1 281.25 187.5zM312.5 687.5H687.5V312.5H312.5V687.5z" />
    <glyph glyph-name="credit-card"
      unicode="&#xEA80;"
      horiz-adv-x="1000" d="M93.75 656.25H906.25M93.75 625H906.25M218.75 406.25H468.75M218.75 312.5H343.75M187.5 187.5H812.5A93.75 93.75 0 0 1 906.25 281.25V718.75A93.75 93.75 0 0 1 812.5 812.5H187.5A93.75 93.75 0 0 1 93.75 718.75V281.25A93.75 93.75 0 0 1 187.5 187.5z" />
    <glyph glyph-name="cube-transparent"
      unicode="&#xEA81;"
      horiz-adv-x="1000" d="M875 687.5L781.25 742.2083333333333M875 687.5V593.75M875 687.5L781.25 632.7916666666667M125 687.5L218.75 742.2083333333333M125 687.5L218.75 632.7916666666667M125 687.5V593.75M500 468.75L593.75 523.4583333333334M500 468.75L406.25 523.4583333333334M500 468.75V375M500 93.75L593.75 148.4583333333334M500 93.75V187.5M500 93.75L406.25 148.4583333333334M406.25 851.5833333333333L500 906.25L593.75 851.5416666666667M875 406.25V312.5L781.25 257.7916666666668M218.75 257.7916666666668L125 312.5V406.25" />
    <glyph glyph-name="cube"
      unicode="&#xEA82;"
      horiz-adv-x="1000" d="M875 687.5L500 906.25L125 687.5M875 687.5L500 468.75M875 687.5V312.5L500 93.75M125 687.5L500 468.75M125 687.5V312.5L500 93.75M500 468.75V93.75" />
    <glyph glyph-name="currency-bangladeshi"
      unicode="&#xEA83;"
      horiz-adv-x="1000" d="M343.75 687.5L361.0416666666667 696.125A31.25 31.25 0 0 0 406.25 668.2083333333334V562.5M406.25 562.5H656.25M406.25 562.5H343.75M406.25 562.5V335.9166666666668C406.25 321.1666666666668 412.9583333333333 306.8750000000001 425.9583333333333 299.8750000000001A156.2916666666667 156.2916666666667 0 0 1 653.125 406.2500000000003C656.5833333333334 423.2916666666669 642.1666666666666 437.5000000000003 624.7916666666666 437.5000000000003H593.75M875 500A375 375 0 1 0 125 500A375 375 0 0 0 875 500z" />
    <glyph glyph-name="currency-dollar"
      unicode="&#xEA84;"
      horiz-adv-x="1000" d="M500 750V250M375 367.4166666666668L411.625 339.9583333333334C460.4166666666666 303.3333333333333 539.5416666666666 303.3333333333333 588.3749999999999 339.9583333333334C637.2083333333333 376.5833333333333 637.2083333333333 435.9166666666668 588.3749999999999 472.5416666666666C564 490.8750000000001 532 500 500 500C469.7916666666666 500 439.5833333333333 509.1666666666667 416.5416666666667 527.4583333333334C370.4583333333333 564.0833333333334 370.4583333333333 623.4166666666667 416.5416666666667 660.0416666666667S537.375 696.6666666666667 583.4583333333333 660.0416666666667L600.7499999999999 646.2916666666667M875 500A375 375 0 1 0 125 500A375 375 0 0 0 875 500z" />
    <glyph glyph-name="currency-euro"
      unicode="&#xEA85;"
      horiz-adv-x="1000" d="M593.75 676.8333333333333A187.5 187.5 0 1 1 593.75 323.1666666666668M312.5 562.5H531.25M312.5 437.5H531.25M875 500A375 375 0 1 0 125 500A375 375 0 0 0 875 500z" />
    <glyph glyph-name="currency-pound"
      unicode="&#xEA86;"
      horiz-adv-x="1000" d="M588.375 682.125A125 125 0 0 1 375.7083333333333 607.0833333333334C374.75 598.25 375.625 589.375 376.875 580.5833333333335L397.9583333333333 433.0416666666668A187.5 187.5 0 0 0 380.0416666666667 322.6250000000001L375 312.5L439.125 333.875A93.75 93.75 0 0 0 498.375 333.875L525.6666666666666 324.7916666666667A93.75 93.75 0 0 1 597.25 329.875L625 343.75M343.75 500H500M875 500A375 375 0 1 0 125 500A375 375 0 0 0 875 500z" />
    <glyph glyph-name="currency-rupee"
      unicode="&#xEA87;"
      horiz-adv-x="1000" d="M625 656.25H375M625 531.25H375M500 281.25L375 406.25H437.5A125 125 0 1 1 437.5 656.25M875 500A375 375 0 1 0 125 500A375 375 0 0 0 875 500z" />
    <glyph glyph-name="currency-yen"
      unicode="&#xEA88;"
      horiz-adv-x="1000" d="M375 687.5L500 500M500 500L625 687.5M500 500V281.25M625 500H375M625 375H375M875 500A375 375 0 1 0 125 500A375 375 0 0 0 875 500z" />
    <glyph glyph-name="cursor-arrow-rays"
      unicode="&#xEA89;"
      horiz-adv-x="1000" d="M626.75 97L570.1666666666666 308.3333333333333M570.1666666666666 308.3333333333333L465.5833333333333 215.6249999999999L489.2916666666666 610.2083333333333L707.0833333333333 280.3333333333333L570.1666666666666 308.3333333333333zM500 906.25V812.5M743.0833333333333 805.5833333333334L676.7916666666665 739.2916666666667M843.75 562.5H750M323.2083333333333 385.7083333333334L256.9583333333333 319.4583333333333M250 562.5H156.25M323.2083333333333 739.2916666666667L256.9583333333333 805.5416666666667" />
    <glyph glyph-name="cursor-arrow-ripple"
      unicode="&#xEA8A;"
      horiz-adv-x="1000" d="M626.75 97L570.1666666666666 308.3333333333333M570.1666666666666 308.3333333333333L465.5833333333333 215.6249999999999L489.2916666666666 610.2083333333333L707.0833333333333 280.3333333333333L570.1666666666666 308.3333333333333zM256.9166666666667 319.4583333333333A343.75 343.75 0 1 0 843.75 562.5M345.3333333333333 407.8333333333334A218.75 218.75 0 1 0 718.75 562.5" />
    <glyph glyph-name="device-phone-mobile"
      unicode="&#xEA8B;"
      horiz-adv-x="1000" d="M437.5 937.5H343.75A93.75 93.75 0 0 1 250 843.75V156.25A93.75 93.75 0 0 1 343.75 62.5H656.25A93.75 93.75 0 0 1 750 156.25V843.75A93.75 93.75 0 0 1 656.25 937.5H562.5M437.5 937.5V875H562.5V937.5M437.5 937.5H562.5M437.5 156.25H562.5" />
    <glyph glyph-name="device-tablet"
      unicode="&#xEA8C;"
      horiz-adv-x="1000" d="M437.5 187.5H562.5M281.25 93.75H718.75A93.75 93.75 0 0 1 812.5 187.5V812.5A93.75 93.75 0 0 1 718.75 906.25H281.25A93.75 93.75 0 0 1 187.5 812.5V187.5A93.75 93.75 0 0 1 281.25 93.75z" />
    <glyph glyph-name="document-arrow-down"
      unicode="&#xEA8D;"
      horiz-adv-x="1000" d="M812.5 406.25V515.625A140.625 140.625 0 0 1 671.875 656.25H609.375A46.875 46.875 0 0 0 562.5 703.125V765.625A140.625 140.625 0 0 1 421.875 906.25H343.75M375 406.25L500 281.25M500 281.25L625 406.25M500 281.25V531.25M437.5 906.25H234.375C208.5 906.25 187.5 885.25 187.5 859.375V140.625C187.5 114.7500000000001 208.5 93.75 234.375 93.75H765.625C791.4999999999999 93.75 812.5 114.7500000000001 812.5 140.625V531.25A375 375 0 0 1 437.5 906.25z" />
    <glyph glyph-name="document-arrow-up"
      unicode="&#xEA8E;"
      horiz-adv-x="1000" d="M812.5 406.25V515.625A140.625 140.625 0 0 1 671.875 656.25H609.375A46.875 46.875 0 0 0 562.5 703.125V765.625A140.625 140.625 0 0 1 421.875 906.25H343.75M625 406.25L500 531.25M500 531.25L375 406.25M500 531.25V281.25M437.5 906.25H234.375C208.5 906.25 187.5 885.25 187.5 859.375V140.625C187.5 114.7500000000001 208.5 93.75 234.375 93.75H765.625C791.4999999999999 93.75 812.5 114.7500000000001 812.5 140.625V531.25A375 375 0 0 1 437.5 906.25z" />
    <glyph glyph-name="document-chart-bar"
      unicode="&#xEA8F;"
      horiz-adv-x="1000" d="M812.5 406.25V515.625A140.625 140.625 0 0 1 671.875 656.25H609.375A46.875 46.875 0 0 0 562.5 703.125V765.625A140.625 140.625 0 0 1 421.875 906.25H343.75M375 312.5V281.25M500 406.25V281.25M625 500V281.25M437.5 906.25H234.375C208.5 906.25 187.5 885.25 187.5 859.375V140.625C187.5 114.7500000000001 208.5 93.75 234.375 93.75H765.625C791.4999999999999 93.75 812.5 114.7500000000001 812.5 140.625V531.25A375 375 0 0 1 437.5 906.25z" />
    <glyph glyph-name="document-check"
      unicode="&#xEA90;"
      horiz-adv-x="1000" d="M421.875 906.25H234.375C208.5 906.25 187.5 885.25 187.5 859.375V140.625C187.5 114.7500000000001 208.5 93.75 234.375 93.75H765.625C791.4999999999999 93.75 812.5 114.7500000000001 812.5 140.625V515.625M421.875 906.25H437.5A375 375 0 0 0 812.5 531.25V515.625M421.875 906.25A140.625 140.625 0 0 0 562.5 765.625V703.125C562.5 677.25 583.5 656.25 609.375 656.25H671.875A140.625 140.625 0 0 0 812.5 515.625M375 375L468.75 281.25L625 500" />
    <glyph glyph-name="document-duplicate"
      unicode="&#xEA91;"
      horiz-adv-x="1000" d="M656.25 281.25V140.625C656.25 114.7500000000001 635.25 93.75 609.375 93.75H203.125A46.875 46.875 0 0 0 156.25 140.625V671.875C156.25 697.75 177.25 718.75 203.125 718.75H281.25A377.5 377.5 0 0 0 343.75 713.5833333333334M656.25 281.25H796.875C822.7499999999999 281.25 843.75 302.2500000000001 843.75 328.125V531.25C843.75 717.0833333333334 708.625 871.2916666666666 531.25 901.0833333333331A377.5 377.5 0 0 1 468.75 906.25H390.625C364.75 906.25 343.75 885.25 343.75 859.375V713.5416666666667M656.25 281.25H390.625A46.875 46.875 0 0 0 343.75 328.125V713.5416666666667M843.75 437.5V515.625A140.625 140.625 0 0 1 703.125 656.25H640.625A46.875 46.875 0 0 0 593.75 703.125V765.625A140.625 140.625 0 0 1 453.125 906.25H406.25" />
    <glyph glyph-name="document-magnifying-glass"
      unicode="&#xEA92;"
      horiz-adv-x="1000" d="M812.5 406.25V515.625A140.625 140.625 0 0 1 671.875 656.25H609.375A46.875 46.875 0 0 0 562.5 703.125V765.625A140.625 140.625 0 0 1 421.875 906.25H343.75M561.7083333333333 344.5416666666668L625 281.25M437.5 906.25H234.375C208.5 906.25 187.5 885.25 187.5 859.375V171.875C187.5 146.0000000000001 208.5 125 234.375 125H765.625C791.4999999999999 125 812.5 146.0000000000001 812.5 171.875V531.25A375 375 0 0 1 437.5 906.25zM593.75 421.875A109.375 109.375 0 1 0 375 421.875A109.375 109.375 0 0 0 593.75 421.875z" />
    <glyph glyph-name="document-minus"
      unicode="&#xEA93;"
      horiz-adv-x="1000" d="M812.5 406.25V515.625A140.625 140.625 0 0 1 671.875 656.25H609.375A46.875 46.875 0 0 0 562.5 703.125V765.625A140.625 140.625 0 0 1 421.875 906.25H343.75M625 406.25H375M437.5 906.25H234.375C208.5 906.25 187.5 885.25 187.5 859.375V140.625C187.5 114.7500000000001 208.5 93.75 234.375 93.75H765.625C791.4999999999999 93.75 812.5 114.7500000000001 812.5 140.625V531.25A375 375 0 0 1 437.5 906.25z" />
    <glyph glyph-name="document-plus"
      unicode="&#xEA94;"
      horiz-adv-x="1000" d="M812.5 406.25V515.625A140.625 140.625 0 0 1 671.875 656.25H609.375A46.875 46.875 0 0 0 562.5 703.125V765.625A140.625 140.625 0 0 1 421.875 906.25H343.75M500 531.25V281.25M625 406.25H375M437.5 906.25H234.375C208.5 906.25 187.5 885.25 187.5 859.375V140.625C187.5 114.7500000000001 208.5 93.75 234.375 93.75H765.625C791.4999999999999 93.75 812.5 114.7500000000001 812.5 140.625V531.25A375 375 0 0 1 437.5 906.25z" />
    <glyph glyph-name="document-text"
      unicode="&#xEA95;"
      horiz-adv-x="1000" d="M812.5 406.25V515.625A140.625 140.625 0 0 1 671.875 656.25H609.375A46.875 46.875 0 0 0 562.5 703.125V765.625A140.625 140.625 0 0 1 421.875 906.25H343.75M343.75 375H656.25M343.75 250H500M437.5 906.25H234.375C208.5 906.25 187.5 885.25 187.5 859.375V140.625C187.5 114.7500000000001 208.5 93.75 234.375 93.75H765.625C791.4999999999999 93.75 812.5 114.7500000000001 812.5 140.625V531.25A375 375 0 0 1 437.5 906.25z" />
    <glyph glyph-name="document"
      unicode="&#xEA96;"
      horiz-adv-x="1000" d="M812.5 406.25V515.625A140.625 140.625 0 0 1 671.875 656.25H609.375A46.875 46.875 0 0 0 562.5 703.125V765.625A140.625 140.625 0 0 1 421.875 906.25H343.75M437.5 906.25H234.375C208.5 906.25 187.5 885.25 187.5 859.375V140.625C187.5 114.7500000000001 208.5 93.75 234.375 93.75H765.625C791.4999999999999 93.75 812.5 114.7500000000001 812.5 140.625V531.25A375 375 0 0 1 437.5 906.25z" />
    <glyph glyph-name="ellipsis-horizontal-circle"
      unicode="&#xEA97;"
      horiz-adv-x="1000" d="M359.375 500A15.625 15.625 0 1 0 328.125 500A15.625 15.625 0 0 0 359.375 500zM359.375 500H343.75M515.625 500A15.625 15.625 0 1 0 484.375 500A15.625 15.625 0 0 0 515.625 500zM515.625 500H500M671.875 500A15.625 15.625 0 1 0 640.625 500A15.625 15.625 0 0 0 671.875 500zM671.875 500H656.25M875 500A375 375 0 1 0 125 500A375 375 0 0 0 875 500z" />
    <glyph glyph-name="ellipsis-horizontal"
      unicode="&#xEA98;"
      horiz-adv-x="1000" d="M281.25 500A31.25 31.25 0 1 0 218.75 500A31.25 31.25 0 0 0 281.25 500zM531.25 500A31.25 31.25 0 1 0 468.75 500A31.25 31.25 0 0 0 531.25 500zM781.25 500A31.25 31.25 0 1 0 718.75 500A31.25 31.25 0 0 0 781.25 500z" />
    <glyph glyph-name="ellipsis-vertical"
      unicode="&#xEA99;"
      horiz-adv-x="1000" d="M500 718.75A31.25 31.25 0 1 0 500 781.25A31.25 31.25 0 0 0 500 718.75zM500 468.75A31.25 31.25 0 1 0 500 531.25A31.25 31.25 0 0 0 500 468.75zM500 218.75A31.25 31.25 0 1 0 500 281.25A31.25 31.25 0 0 0 500 218.75z" />
    <glyph glyph-name="envelope-open"
      unicode="&#xEA9A;"
      horiz-adv-x="1000" d="M906.25 625V587.25A93.75 93.75 0 0 0 856.9583333333333 504.7083333333333L587.0416666666666 359.375M93.75 625V587.25A93.75 93.75 0 0 1 143.0416666666667 504.7083333333333L412.9583333333333 359.375M781.25 254.7916666666668L587.0833333333333 359.3750000000001M587.0833333333333 359.3750000000001L544.4583333333333 382.2916666666669A93.75 93.75 0 0 1 455.5416666666666 382.2916666666669L412.9583333333333 359.3750000000001M412.9583333333333 359.3750000000001L218.75 254.7916666666668M906.25 187.5000000000002A93.75 93.75 0 0 0 812.5 93.7500000000002H187.5A93.75 93.75 0 0 0 93.75 187.5000000000002V631.5A93.75 93.75 0 0 0 143.0416666666667 714.0416666666667L455.5416666666666 882.3333333333334A93.75 93.75 0 0 0 544.4583333333333 882.3333333333334L856.9583333333333 714.0416666666667A93.75 93.75 0 0 0 906.25 631.5416666666667V187.5z" />
    <glyph glyph-name="envelope"
      unicode="&#xEA9B;"
      horiz-adv-x="1000" d="M906.25 718.75V281.25A93.75 93.75 0 0 0 812.5 187.5H187.5A93.75 93.75 0 0 0 93.75 281.25V718.75M906.25 718.75A93.75 93.75 0 0 1 812.5 812.5H187.5A93.75 93.75 0 0 1 93.75 718.75M906.25 718.75V708.625A93.75 93.75 0 0 0 861.6666666666666 628.7916666666667L549.1666666666666 436.5A93.75 93.75 0 0 0 450.8333333333333 436.5L138.3333333333333 628.75A93.75 93.75 0 0 0 93.75 708.5833333333334V718.75" />
    <glyph glyph-name="exclaimation-circle"
      unicode="&#xEA9C;"
      horiz-adv-x="1000" d="M500 625V468.75M875 500A375 375 0 1 0 125 500A375 375 0 0 0 875 500zM500 343.75H500.3333333333333V343.4166666666668H500V343.75z" />
    <glyph glyph-name="exclamation-triangle"
      unicode="&#xEA9D;"
      horiz-adv-x="1000" d="M500 625V468.75M112.375 328.0833333333334C76.2916666666666 265.5833333333334 121.4166666666666 187.5 193.5416666666666 187.5H806.4583333333333C878.5416666666666 187.5 923.6666666666666 265.5833333333334 887.625 328.0833333333334L581.2083333333333 859.25C545.125 921.75 454.8749999999999 921.75 418.7916666666667 859.25L112.375 328.0833333333334zM500 343.75H500.2916666666666V343.4166666666668H500V343.75z" />
    <glyph glyph-name="eye-dropper"
      unicode="&#xEA9E;"
      horiz-adv-x="1000" d="M625 531.25L687.5 468.75L718.75 500V635.0833333333334L813.5833333333333 660.5A125 125 0 1 1 660.4583333333333 813.625L635.0416666666666 718.75H500L468.75 687.5L531.25 625M625 531.25L272.0833333333333 178.3333333333334C257.9166666666667 164.1666666666668 238.75 156.25 218.75 156.25S179.5833333333333 148.3333333333334 165.4166666666666 134.1666666666666L125 93.75L93.75 125L134.1666666666666 165.4166666666666C148.3333333333333 179.5833333333334 156.25 198.75 156.25 218.75S164.1666666666666 257.9166666666668 178.3333333333333 272.0833333333334L531.25 625M625 531.25L531.25 625" />
    <glyph glyph-name="eye-slash"
      unicode="&#xEA9F;"
      horiz-adv-x="1000" d="M165.8333333333333 657.375A436.5416666666667 436.5416666666667 0 0 1 80.5833333333333 500C134.4166666666667 319.25 301.8333333333333 187.5 500 187.5C541.375 187.5 581.3749999999999 193.2500000000001 619.2916666666666 203.9583333333334M259.5 740.5A435.4583333333333 435.4583333333333 0 0 0 500 812.5C698.1666666666666 812.5 865.5416666666666 680.75 919.3749999999998 500.0833333333333A438.4166666666667 438.4166666666667 0 0 0 740.4999999999999 259.5M259.5 740.5L125 875M259.5 740.5L411.5833333333333 588.4166666666667M740.4999999999999 259.5000000000001L875 125M740.4999999999999 259.5000000000001L588.4166666666665 411.5833333333335M588.4166666666665 411.5833333333335A125 125 0 1 1 411.6249999999999 588.3750000000001M588.3749999999999 411.6250000000001L411.6666666666667 588.3333333333333" />
    <glyph glyph-name="eye"
      unicode="&#xEAA0;"
      horiz-adv-x="1000" d="M84.8333333333333 486.5833333333334A42.1666666666667 42.1666666666667 0 0 0 84.8333333333333 513.2083333333334C142.625 687.0833333333334 306.6666666666667 812.5 500 812.5C693.2499999999999 812.5 857.2083333333333 687.2083333333334 915.125 513.4166666666667C918.0416666666666 504.7916666666666 918.0416666666666 495.4583333333334 915.125 486.7916666666667C857.375 312.9166666666668 693.3333333333334 187.5 500 187.5C306.75 187.5 142.7916666666666 312.7916666666668 84.875 486.5833333333334zM625 500A125 125 0 1 0 375 500A125 125 0 0 0 625 500z" />
    <glyph glyph-name="face-frown"
      unicode="&#xEAA1;"
      horiz-adv-x="1000" d="M632.5833333333333 320.0833333333333A186.9166666666666 186.9166666666666 0 0 1 500.6666666666666 375A186.9166666666666 186.9166666666666 0 0 1 367.4166666666667 320.0833333333333M875 500A375 375 0 1 0 125 500A375 375 0 0 0 875 500zM406.25 593.75C406.25 576.5 399.25 562.5 390.625 562.5S375 576.5 375 593.75S382 625 390.625 625S406.25 611 406.25 593.75zM390.625 593.75H390.9583333333333V593.125H390.625V593.75zM625 593.75C625 576.5 618 562.5 609.375 562.5S593.75 576.5 593.75 593.75S600.7499999999999 625 609.375 625S625 611 625 593.75zM609.375 593.75H609.7083333333333V593.125H609.375V593.75z" />
    <glyph glyph-name="face-smile"
      unicode="&#xEAA2;"
      horiz-adv-x="1000" d="M632.5833333333333 367.4166666666668A187.5 187.5 0 0 0 367.4166666666667 367.4166666666668M875 500A375 375 0 1 0 125 500A375 375 0 0 0 875 500zM406.25 593.75C406.25 576.5 399.25 562.5 390.625 562.5S375 576.5 375 593.75S382 625 390.625 625S406.25 611 406.25 593.75zM390.625 593.75H390.9583333333333V593.125H390.625V593.75zM625 593.75C625 576.5 618 562.5 609.375 562.5S593.75 576.5 593.75 593.75S600.7499999999999 625 609.375 625S625 611 625 593.75zM609.375 593.75H609.7083333333333V593.125H609.375V593.75z" />
    <glyph glyph-name="film"
      unicode="&#xEAA3;"
      horiz-adv-x="1000" d="M140.625 187.5H859.375M140.625 187.5A46.875 46.875 0 0 0 93.75 234.375M140.625 187.5H203.125C229 187.5 250 208.5000000000001 250 234.375M93.75 234.375V765.625M93.75 234.375V296.875C93.75 322.75 114.75 343.75 140.625 343.75M906.25 234.375V765.625M906.25 234.375C906.25 208.5000000000001 885.2499999999999 187.5 859.375 187.5M906.25 234.375V296.875C906.25 322.75 885.2499999999999 343.75 859.375 343.75M859.375 187.5H796.875A46.875 46.875 0 0 0 750 234.375M859.375 812.5H140.625M859.375 812.5C885.2499999999999 812.5 906.25 791.5 906.25 765.625M859.375 812.5H796.875C771 812.5 750 791.5 750 765.625M906.25 765.625V703.125C906.25 677.25 885.2499999999999 656.25 859.375 656.25M140.625 812.5C114.75 812.5 93.75 791.5 93.75 765.625M140.625 812.5H203.125C229 812.5 250 791.5 250 765.625M93.75 765.625V703.125C93.75 677.25 114.75 656.25 140.625 656.25M140.625 656.25H203.125M140.625 656.25C114.75 656.25 93.75 635.25 93.75 609.375V546.875C93.75 521 114.75 500 140.625 500M203.125 656.25C229 656.25 250 677.25 250 703.125V765.625M203.125 656.25C229 656.25 250 635.25 250 609.375V546.875M250 765.625V546.875M250 765.625C250 791.5 271 812.5 296.875 812.5H703.125C728.9999999999999 812.5 750 791.5 750 765.625M796.875 656.25H859.375M796.875 656.25A46.875 46.875 0 0 0 750 703.125V765.625M796.875 656.25C771 656.25 750 635.25 750 609.375V546.875M859.375 656.25C885.2499999999999 656.25 906.25 635.25 906.25 609.375V546.875C906.25 521 885.2499999999999 500 859.375 500M750 765.625V546.875M296.875 500H703.125M296.875 500A46.875 46.875 0 0 0 250 546.875M296.875 500C271 500 250 479 250 453.125M250 546.875C250 521 229 500 203.125 500M750 546.875C750 521 728.9999999999999 500 703.125 500M750 546.875C750 521 771 500 796.875 500M703.125 500C728.9999999999999 500 750 479 750 453.125M250 234.375V453.125M250 234.375C250 208.5000000000001 271 187.5 296.875 187.5H703.125C728.9999999999999 187.5 750 208.5000000000001 750 234.375M250 234.375V296.875C250 322.75 229 343.75 203.125 343.75M750 234.375V453.125M750 234.375V296.875C750 322.75 771 343.75 796.875 343.75M750 453.125V390.625C750 364.75 771 343.75 796.875 343.75M750 453.125C750 479 771 500 796.875 500M250 453.125V390.625C250 364.75 229 343.75 203.125 343.75M250 453.125C250 479 229 500 203.125 500M140.625 500H203.125M140.625 500C114.75 500 93.75 479 93.75 453.125V390.625C93.75 364.75 114.75 343.75 140.625 343.75M796.875 500H859.375M859.375 500C885.2499999999999 500 906.25 479 906.25 453.125V390.625C906.25 364.75 885.2499999999999 343.75 859.375 343.75M140.625 343.75H203.125M796.875 343.75H859.375" />
    <glyph glyph-name="finger-print"
      unicode="&#xEAA4;"
      horiz-adv-x="1000" d="M327.6666666666667 823.2083333333334A312.5 312.5 0 0 0 812.5 562.5C812.5 440.8333333333334 789.3333333333333 324.625 747.1666666666665 218M239.25 734.8333333333334A311.0416666666667 311.0416666666667 0 0 1 187.5 562.5A311 311 0 0 0 139.5833333333334 396.125M222.4583333333334 247.8333333333334A467.0416666666666 467.0416666666666 0 0 1 343.75 562.5A156.25 156.25 0 1 0 656.25 562.5C656.25 540.5416666666667 655.3749999999999 518.7916666666667 653.5833333333333 497.2916666666667M500 562.5A622.4999999999999 622.4999999999999 0 0 0 350 156.25M626.375 347.75A777.75 777.75 0 0 0 522.8333333333334 125.6666666666666" />
    <glyph glyph-name="fire"
      unicode="&#xEAA5;"
      horiz-adv-x="1000" d="M640.0833333333333 782.75A343.8333333333333 343.8333333333333 0 0 0 500 125A343.75 343.75 0 0 0 251.5833333333334 706.375A345.2916666666667 345.2916666666667 0 0 1 375 599.9583333333333A374.2916666666667 374.2916666666667 0 0 0 515.0416666666666 886.0833333333333A342.0833333333333 342.0833333333333 0 0 1 640.0416666666666 782.75zM500 250A156.25 156.25 0 0 1 520.6249999999999 561.1666666666667A249.5833333333333 249.5833333333333 0 0 1 440.4166666666666 413.375A248.9583333333333 248.9583333333333 0 0 0 351.5416666666666 455.0833333333334A156.25 156.25 0 0 1 500 250z" />
    <glyph glyph-name="flag"
      unicode="&#xEAA6;"
      horiz-adv-x="1000" d="M125 875V812.5M125 125V375M125 375L240.4166666666667 403.875A375 375 0 0 0 499.0833333333333 375.4583333333334L503.5833333333333 373.2083333333334A375 375 0 0 1 757.1666666666666 343.625L886.9166666666666 374.125A2021.8333333333328 2021.8333333333328 0 0 0 886.7083333333334 811.5833333333334L757.1250000000001 781.0833333333333A375 375 0 0 0 503.5833333333334 810.7083333333334L499.0833333333334 812.9583333333334A375 375 0 0 1 240.4166666666667 841.375L125 812.5M125 375V812.5" />
    <glyph glyph-name="folder-arrow-down"
      unicode="&#xEAA7;"
      horiz-adv-x="1000" d="M375 437.5L500 312.5M500 312.5L625 437.5M500 312.5V562.5M544.1666666666666 737.0833333333334L455.8333333333334 825.4166666666667A62.5 62.5 0 0 1 411.6250000000001 843.75H187.5A93.75 93.75 0 0 1 93.75 750V250A93.75 93.75 0 0 1 187.5 156.25H812.5A93.75 93.75 0 0 1 906.25 250V625A93.75 93.75 0 0 1 812.5 718.75H588.375A62.5 62.5 0 0 0 544.2083333333333 737.0833333333334z" />
    <glyph glyph-name="folder-minus"
      unicode="&#xEAA8;"
      horiz-adv-x="1000" d="M625 437.5H375M544.1666666666666 737.0833333333334L455.8333333333332 825.4166666666667A62.5 62.5 0 0 1 411.6249999999999 843.75H187.5A93.75 93.75 0 0 1 93.75 750V250A93.75 93.75 0 0 1 187.5 156.25H812.5A93.75 93.75 0 0 1 906.25 250V625A93.75 93.75 0 0 1 812.5 718.75H588.375A62.5 62.5 0 0 0 544.2083333333333 737.0833333333334z" />
    <glyph glyph-name="folder-open"
      unicode="&#xEAA9;"
      horiz-adv-x="1000" d="M156.25 592.6666666666667C160.9166666666667 593.375 165.7083333333333 593.75 170.5833333333334 593.75H829.4166666666665C834.2916666666666 593.75 839.0833333333333 593.375 843.75 592.6666666666667M156.25 592.6666666666667A93.75 93.75 0 0 1 77.7916666666667 486.75L113.5 236.7500000000001A93.75 93.75 0 0 1 206.2916666666667 156.2500000000002H793.75A93.75 93.75 0 0 1 886.5416666666666 236.7500000000001L922.25 486.7500000000001A93.75 93.75 0 0 1 843.7916666666666 592.6666666666667M156.2916666666667 592.6666666666667V750A93.75 93.75 0 0 0 250 843.75H411.625A62.5 62.5 0 0 0 455.7916666666666 825.4166666666666L544.2083333333333 737.0833333333333A62.5 62.5 0 0 1 588.375 718.75H750A93.75 93.75 0 0 0 843.75 625V592.6666666666667" />
    <glyph glyph-name="folder-plus"
      unicode="&#xEAAA;"
      horiz-adv-x="1000" d="M500 562.5V312.5M625 437.5H375M544.1666666666666 737.0833333333334L455.8333333333332 825.4166666666667A62.5 62.5 0 0 1 411.6249999999999 843.75H187.5A93.75 93.75 0 0 1 93.75 750V250A93.75 93.75 0 0 1 187.5 156.25H812.5A93.75 93.75 0 0 1 906.25 250V625A93.75 93.75 0 0 1 812.5 718.75H588.375A62.5 62.5 0 0 0 544.2083333333333 737.0833333333334z" />
    <glyph glyph-name="folder"
      unicode="&#xEAAB;"
      horiz-adv-x="1000" d="M93.75 468.75V500A93.75 93.75 0 0 0 187.5 593.75H812.5A93.75 93.75 0 0 0 906.25 500V468.75M544.1666666666666 737.0833333333334L455.8333333333334 825.4166666666667A62.5 62.5 0 0 1 411.6250000000001 843.75H187.5A93.75 93.75 0 0 1 93.75 750V250A93.75 93.75 0 0 1 187.5 156.25H812.5A93.75 93.75 0 0 1 906.25 250V625A93.75 93.75 0 0 1 812.5 718.75H588.375A62.5 62.5 0 0 0 544.2083333333333 737.0833333333334z" />
    <glyph glyph-name="forward"
      unicode="&#xEAAC;"
      horiz-adv-x="1000" d="M125 637.9583333333334C125 673.9583333333334 163.875 696.5416666666667 195.125 678.6666666666667L491.2916666666666 509.4583333333334A46.875 46.875 0 0 0 491.2916666666666 428.0416666666668L195.125 258.8333333333334A46.875 46.875 0 0 0 125 299.5416666666668V637.9166666666667zM531.25 637.9583333333334C531.25 673.9583333333334 570.125 696.5416666666667 601.375 678.6666666666667L897.5416666666666 509.4583333333334A46.875 46.875 0 0 0 897.5416666666666 428.0416666666668L601.375 258.8333333333334A46.875 46.875 0 0 0 531.25 299.5416666666668V637.9166666666667z" />
    <glyph glyph-name="funnel"
      unicode="&#xEAAD;"
      horiz-adv-x="1000" d="M500 875C614.7916666666666 875 727.2916666666665 865.3333333333334 836.7916666666665 846.75C858.9999999999999 843 875 823.5833333333334 875 801.0833333333334V757.5833333333334A93.75 93.75 0 0 0 847.5416666666666 691.2916666666667L621.2083333333334 464.9583333333334A93.75 93.75 0 0 1 593.75 398.6666666666667V276.7083333333333A93.75 93.75 0 0 0 541.9166666666666 192.8333333333334L406.25 125V398.6666666666667A93.75 93.75 0 0 1 378.7916666666667 464.9583333333334L152.4583333333333 691.2916666666667A93.75 93.75 0 0 0 125 757.5833333333334V801.0833333333334C125 823.5833333333334 141 843 163.2083333333333 846.75A2013.3333333333333 2013.3333333333333 0 0 0 500 875z" />
    <glyph glyph-name="gif"
      unicode="&#xEAAE;"
      horiz-adv-x="1000" d="M531.25 656.25V343.75M781.25 656.25H656.25V500M656.25 500V343.75M656.25 500H750M406.25 610.5C363.3333333333333 671.5 293.8333333333333 671.5 250.9166666666667 610.5C208 549.4583333333333 208 450.5 250.9166666666667 389.5C293.8333333333333 328.5 363.375 328.5 406.25 389.5V500H343.75M187.5 187.5H812.5A93.75 93.75 0 0 1 906.25 281.25V718.75A93.75 93.75 0 0 1 812.5 812.5H187.5A93.75 93.75 0 0 1 93.75 718.75V281.25A93.75 93.75 0 0 1 187.5 187.5z" />
    <glyph glyph-name="gift-top"
      unicode="&#xEAAF;"
      horiz-adv-x="1000" d="M500 843.75V156.25M93.75 500H906.25M265.625 281.25A203.125 203.125 0 0 1 468.75 484.375V500M734.375 281.25A203.125 203.125 0 0 0 531.25 484.375V500M156.25 156.25H843.75A62.5 62.5 0 0 1 906.25 218.75V781.25A62.5 62.5 0 0 1 843.75 843.75H156.25A62.5 62.5 0 0 1 93.75 781.25V218.75A62.5 62.5 0 0 1 156.25 156.25zM682.125 549.5833333333333C623.4166666666667 490.8333333333333 505.375 505.375 505.375 505.375S490.8333333333334 623.4166666666667 549.5416666666667 682.125A93.75 93.75 0 0 0 682.125 549.5416666666667zM448.875 682.0833333333334C507.5833333333333 623.375 493.0416666666666 505.3333333333334 493.0416666666666 505.3333333333334S375 490.8333333333333 316.3333333333333 549.5416666666667A93.75 93.75 0 1 0 448.9166666666667 682.125z" />
    <glyph glyph-name="gift"
      unicode="&#xEAB0;"
      horiz-adv-x="1000" d="M875 531.25V187.5A62.5 62.5 0 0 0 812.5 125H218.75A62.5 62.5 0 0 0 156.25 187.5V531.25M500 796.875A109.375 109.375 0 1 1 390.625 687.5H500M500 796.875V687.5M500 796.875A109.375 109.375 0 1 0 609.375 687.5H500M500 687.5V125M140.625 531.25H890.625C916.4999999999998 531.25 937.5 552.25 937.5 578.125V640.625C937.5 666.5 916.4999999999998 687.5 890.625 687.5H140.625C114.75 687.5 93.75 666.5 93.75 640.625V578.125C93.75 552.25 114.75 531.25 140.625 531.25z" />
    <glyph glyph-name="globe-alt"
      unicode="&#xEAB1;"
      horiz-adv-x="1000" d="M500 125A375.1666666666667 375.1666666666667 0 0 1 863.1666666666666 406.125M500 125A375.1666666666667 375.1666666666667 0 0 0 136.8333333333334 406.125M500 125C603.5416666666666 125 687.5 292.9166666666668 687.5 500S603.5416666666666 875 500 875M500 125C396.4583333333333 125 312.5 292.9166666666668 312.5 500S396.4583333333333 875 500 875M500 875A374.875 374.875 0 0 0 826.7916666666666 684.0833333333334M500 875A374.875 374.875 0 0 1 173.2083333333333 684.0833333333334M826.7916666666666 684.0833333333334A498.0416666666666 498.0416666666666 0 0 0 500 562.5C375.0833333333333 562.5 260.8333333333333 608.3333333333333 173.2083333333333 684.0833333333334M826.7916666666666 684.0833333333334A373.2916666666666 373.2916666666666 0 0 0 875 500C875 467.5833333333334 870.8749999999999 436.125 863.1666666666666 406.125M863.1666666666666 406.125A746.625 746.625 0 0 0 500 312.5C368.25 312.5 244.4583333333333 346.4583333333334 136.8333333333334 406.125M136.8333333333334 406.125A375.625 375.625 0 0 0 125 500C125 566.875 142.5 629.7083333333333 173.2083333333333 684.0833333333334" />
    <glyph glyph-name="globe-americas"
      unicode="&#xEAB2;"
      horiz-adv-x="1000" d="M254.7916666666667 783.75L268.0833333333333 704.0416666666666A250 250 0 0 1 337.9166666666667 568.3333333333334L406.25 500L390.125 467.7083333333334C381.0833333333333 449.6666666666668 384.625 427.875 398.875 413.625L455.0416666666667 357.4583333333334C463.7916666666667 348.7083333333333 468.7500000000001 336.75 468.7500000000001 324.3333333333334V278.9583333333334C468.7500000000001 261.2083333333335 478.7500000000001 245 494.6666666666667 237.0416666666668L501.0416666666667 233.875C519.0833333333334 224.8333333333334 540.875 228.375 555.1250000000001 242.6250000000001L585.2500000000001 272.75A362.4999999999999 362.4999999999999 0 0 1 680.5833333333334 441.1666666666667A45.2916666666667 45.2916666666667 0 0 1 665.6666666666667 486.9583333333334L610.2500000000001 533.125C599.7916666666667 541.875 586 545.5833333333333 572.5416666666667 543.3333333333333L523.7916666666667 535.2083333333333A46.875 46.875 0 0 0 482.9583333333334 548.2916666666666L470.6666666666667 560.5833333333333A46.875 46.875 0 0 0 470.6666666666667 626.875L476.0833333333335 632.375A46.875 46.875 0 0 0 530.2500000000001 641.125L555.3750000000001 628.5416666666666A33.7083333333333 33.7083333333333 0 0 1 600.6250000000001 673.7916666666667L593.75 687.5L646.0833333333333 722.375A187.5 187.5 0 0 1 709.7499999999999 794.5416666666667L715.8333333333333 806.7083333333334M254.7916666666667 783.75A375 375 0 1 1 715.8333333333333 806.6666666666667M254.7916666666667 783.75A373.5416666666667 373.5416666666667 0 0 0 500 875C580.375 875 654.8333333333334 849.7083333333334 715.8333333333333 806.6666666666667" />
    </font>
</defs>
</svg>
